<mxfile host="app.diagrams.net" agent="Mozilla/5.0 (Macintosh; Intel Mac OS X 10_15_7) AppleWebKit/605.1.15 (KHTML, like Gecko) Version/16.4 Safari/605.1.15" version="27.0.9">
  <diagram name="Page-1" id="0CVpgFmAuAqFdw3ELSrf">
    <mxGraphModel dx="1789" dy="2469" grid="1" gridSize="10" guides="1" tooltips="1" connect="1" arrows="1" fold="1" page="1" pageScale="1" pageWidth="850" pageHeight="1100" math="0" shadow="0">
      <root>
        <mxCell id="0" />
        <mxCell id="1" parent="0" />
        <mxCell id="IT3nphw8xW6kMLgiiqp9-551" value="" style="group" vertex="1" connectable="0" parent="1">
          <mxGeometry x="80" y="-20" width="350" height="150" as="geometry" />
        </mxCell>
        <mxCell id="IT3nphw8xW6kMLgiiqp9-2" value="user" style="rounded=0;whiteSpace=wrap;html=1;fontSize=8;fontStyle=1;verticalAlign=middle;container=0;" vertex="1" parent="IT3nphw8xW6kMLgiiqp9-551">
          <mxGeometry x="160" y="110" width="140" height="40" as="geometry" />
        </mxCell>
        <mxCell id="IT3nphw8xW6kMLgiiqp9-3" value="" style="endArrow=none;html=1;rounded=0;exitX=0.114;exitY=0.004;exitDx=0;exitDy=0;exitPerimeter=0;entryX=0.477;entryY=1.082;entryDx=0;entryDy=0;entryPerimeter=0;fontSize=8;fontStyle=1;verticalAlign=middle;" edge="1" parent="IT3nphw8xW6kMLgiiqp9-551" source="IT3nphw8xW6kMLgiiqp9-2" target="IT3nphw8xW6kMLgiiqp9-4">
          <mxGeometry width="50" height="50" relative="1" as="geometry">
            <mxPoint x="170" y="100" as="sourcePoint" />
            <mxPoint x="160" y="80" as="targetPoint" />
          </mxGeometry>
        </mxCell>
        <mxCell id="IT3nphw8xW6kMLgiiqp9-4" value="&lt;font&gt;&lt;u&gt;userid&lt;/u&gt;&lt;/font&gt;" style="ellipse;whiteSpace=wrap;html=1;fontSize=8;fontStyle=1;verticalAlign=middle;container=0;" vertex="1" parent="IT3nphw8xW6kMLgiiqp9-551">
          <mxGeometry x="150" y="80.18" width="40" height="20" as="geometry" />
        </mxCell>
        <mxCell id="IT3nphw8xW6kMLgiiqp9-5" value="" style="endArrow=none;html=1;rounded=0;exitX=0.114;exitY=0.004;exitDx=0;exitDy=0;exitPerimeter=0;entryX=0.477;entryY=1.082;entryDx=0;entryDy=0;entryPerimeter=0;fontSize=8;fontStyle=1;verticalAlign=middle;" edge="1" parent="IT3nphw8xW6kMLgiiqp9-551" target="IT3nphw8xW6kMLgiiqp9-6">
          <mxGeometry width="50" height="50" relative="1" as="geometry">
            <mxPoint x="220" y="110" as="sourcePoint" />
            <mxPoint x="210" y="80" as="targetPoint" />
          </mxGeometry>
        </mxCell>
        <mxCell id="IT3nphw8xW6kMLgiiqp9-6" value="name" style="ellipse;whiteSpace=wrap;html=1;fontSize=8;fontStyle=1;verticalAlign=middle;container=0;" vertex="1" parent="IT3nphw8xW6kMLgiiqp9-551">
          <mxGeometry x="200" y="70" width="40" height="20" as="geometry" />
        </mxCell>
        <mxCell id="IT3nphw8xW6kMLgiiqp9-7" value="" style="endArrow=none;html=1;rounded=0;entryX=0;entryY=0;entryDx=0;entryDy=0;exitX=0.591;exitY=1.022;exitDx=0;exitDy=0;exitPerimeter=0;fontSize=8;fontStyle=1;verticalAlign=middle;" edge="1" parent="IT3nphw8xW6kMLgiiqp9-551" source="IT3nphw8xW6kMLgiiqp9-8" target="IT3nphw8xW6kMLgiiqp9-6">
          <mxGeometry width="50" height="50" relative="1" as="geometry">
            <mxPoint x="200" y="70" as="sourcePoint" />
            <mxPoint x="210" y="140" as="targetPoint" />
          </mxGeometry>
        </mxCell>
        <mxCell id="IT3nphw8xW6kMLgiiqp9-8" value="first_name" style="ellipse;whiteSpace=wrap;html=1;fontSize=8;fontStyle=1;verticalAlign=middle;container=0;" vertex="1" parent="IT3nphw8xW6kMLgiiqp9-551">
          <mxGeometry x="160" y="40" width="50" height="30" as="geometry" />
        </mxCell>
        <mxCell id="IT3nphw8xW6kMLgiiqp9-9" value="" style="endArrow=none;html=1;rounded=0;exitX=0.5;exitY=1;exitDx=0;exitDy=0;fontSize=8;fontStyle=1;verticalAlign=middle;" edge="1" parent="IT3nphw8xW6kMLgiiqp9-551" source="IT3nphw8xW6kMLgiiqp9-10">
          <mxGeometry width="50" height="50" relative="1" as="geometry">
            <mxPoint x="250" y="51.629999999999995" as="sourcePoint" />
            <mxPoint x="220" y="70" as="targetPoint" />
          </mxGeometry>
        </mxCell>
        <mxCell id="IT3nphw8xW6kMLgiiqp9-10" value="middle_name" style="ellipse;whiteSpace=wrap;html=1;fontSize=8;fontStyle=1;verticalAlign=middle;container=0;" vertex="1" parent="IT3nphw8xW6kMLgiiqp9-551">
          <mxGeometry x="185" y="10" width="70" height="30" as="geometry" />
        </mxCell>
        <mxCell id="IT3nphw8xW6kMLgiiqp9-11" value="" style="endArrow=none;html=1;rounded=0;entryX=1;entryY=0;entryDx=0;entryDy=0;exitX=0.372;exitY=0.99;exitDx=0;exitDy=0;exitPerimeter=0;fontSize=8;fontStyle=1;verticalAlign=middle;" edge="1" parent="IT3nphw8xW6kMLgiiqp9-551" source="IT3nphw8xW6kMLgiiqp9-12" target="IT3nphw8xW6kMLgiiqp9-6">
          <mxGeometry width="50" height="50" relative="1" as="geometry">
            <mxPoint x="250" y="60" as="sourcePoint" />
            <mxPoint x="216" y="93" as="targetPoint" />
          </mxGeometry>
        </mxCell>
        <mxCell id="IT3nphw8xW6kMLgiiqp9-12" value="last_name" style="ellipse;whiteSpace=wrap;html=1;fontSize=8;fontStyle=1;verticalAlign=middle;container=0;" vertex="1" parent="IT3nphw8xW6kMLgiiqp9-551">
          <mxGeometry x="230" y="40" width="50" height="30" as="geometry" />
        </mxCell>
        <mxCell id="IT3nphw8xW6kMLgiiqp9-13" value="" style="endArrow=none;html=1;rounded=0;entryX=0.323;entryY=0.914;entryDx=0;entryDy=0;entryPerimeter=0;fontSize=8;fontStyle=1;verticalAlign=middle;" edge="1" parent="IT3nphw8xW6kMLgiiqp9-551" target="IT3nphw8xW6kMLgiiqp9-14">
          <mxGeometry width="50" height="50" relative="1" as="geometry">
            <mxPoint x="270" y="110" as="sourcePoint" />
            <mxPoint x="280" y="90" as="targetPoint" />
          </mxGeometry>
        </mxCell>
        <mxCell id="IT3nphw8xW6kMLgiiqp9-14" value="contact_info" style="ellipse;whiteSpace=wrap;html=1;fontSize=8;fontStyle=1;verticalAlign=middle;container=0;" vertex="1" parent="IT3nphw8xW6kMLgiiqp9-551">
          <mxGeometry x="280" y="70" width="60" height="20" as="geometry" />
        </mxCell>
        <mxCell id="IT3nphw8xW6kMLgiiqp9-15" value="" style="endArrow=none;html=1;rounded=0;exitX=0.591;exitY=1.022;exitDx=0;exitDy=0;exitPerimeter=0;entryX=0.5;entryY=0;entryDx=0;entryDy=0;fontSize=8;fontStyle=1;verticalAlign=middle;" edge="1" parent="IT3nphw8xW6kMLgiiqp9-551" source="IT3nphw8xW6kMLgiiqp9-35" target="IT3nphw8xW6kMLgiiqp9-14">
          <mxGeometry width="50" height="50" relative="1" as="geometry">
            <mxPoint x="330" y="60" as="sourcePoint" />
            <mxPoint x="336" y="63" as="targetPoint" />
          </mxGeometry>
        </mxCell>
        <mxCell id="IT3nphw8xW6kMLgiiqp9-16" value="" style="endArrow=none;html=1;rounded=0;exitX=0.372;exitY=0.99;exitDx=0;exitDy=0;exitPerimeter=0;fontSize=8;fontStyle=1;verticalAlign=middle;" edge="1" parent="IT3nphw8xW6kMLgiiqp9-551" source="IT3nphw8xW6kMLgiiqp9-17">
          <mxGeometry width="50" height="50" relative="1" as="geometry">
            <mxPoint x="380" y="50" as="sourcePoint" />
            <mxPoint x="310" y="70" as="targetPoint" />
          </mxGeometry>
        </mxCell>
        <mxCell id="IT3nphw8xW6kMLgiiqp9-17" value="" style="ellipse;whiteSpace=wrap;html=1;fontSize=8;fontStyle=1;verticalAlign=middle;container=0;" vertex="1" parent="IT3nphw8xW6kMLgiiqp9-551">
          <mxGeometry x="300" y="30" width="50" height="30" as="geometry" />
        </mxCell>
        <mxCell id="IT3nphw8xW6kMLgiiqp9-18" value="" style="endArrow=none;html=1;rounded=0;exitX=0.004;exitY=0.433;exitDx=0;exitDy=0;entryX=1;entryY=0.5;entryDx=0;entryDy=0;exitPerimeter=0;fontSize=8;fontStyle=1;verticalAlign=middle;" edge="1" parent="IT3nphw8xW6kMLgiiqp9-551" source="IT3nphw8xW6kMLgiiqp9-2" target="IT3nphw8xW6kMLgiiqp9-19">
          <mxGeometry width="50" height="50" relative="1" as="geometry">
            <mxPoint x="160" y="114.18" as="sourcePoint" />
            <mxPoint x="70" y="114.18" as="targetPoint" />
          </mxGeometry>
        </mxCell>
        <mxCell id="IT3nphw8xW6kMLgiiqp9-19" value="Address" style="ellipse;whiteSpace=wrap;html=1;fontSize=8;fontStyle=1;verticalAlign=middle;container=0;" vertex="1" parent="IT3nphw8xW6kMLgiiqp9-551">
          <mxGeometry x="50" y="104.18" width="50" height="25.82" as="geometry" />
        </mxCell>
        <mxCell id="IT3nphw8xW6kMLgiiqp9-20" value="" style="endArrow=none;html=1;rounded=0;entryX=0;entryY=0;entryDx=0;entryDy=0;exitX=0.591;exitY=1.022;exitDx=0;exitDy=0;exitPerimeter=0;fontSize=8;fontStyle=1;verticalAlign=middle;" edge="1" parent="IT3nphw8xW6kMLgiiqp9-551" source="IT3nphw8xW6kMLgiiqp9-21" target="IT3nphw8xW6kMLgiiqp9-19">
          <mxGeometry width="50" height="50" relative="1" as="geometry">
            <mxPoint x="60" y="104.18" as="sourcePoint" />
            <mxPoint x="70" y="174.18" as="targetPoint" />
          </mxGeometry>
        </mxCell>
        <mxCell id="IT3nphw8xW6kMLgiiqp9-21" value="city" style="ellipse;whiteSpace=wrap;html=1;fontSize=8;fontStyle=1;verticalAlign=middle;container=0;" vertex="1" parent="IT3nphw8xW6kMLgiiqp9-551">
          <mxGeometry x="10" y="74.18" width="50" height="30" as="geometry" />
        </mxCell>
        <mxCell id="IT3nphw8xW6kMLgiiqp9-22" value="" style="endArrow=none;html=1;rounded=0;exitX=0.591;exitY=1.022;exitDx=0;exitDy=0;exitPerimeter=0;entryX=0.5;entryY=0;entryDx=0;entryDy=0;fontSize=8;fontStyle=1;verticalAlign=middle;" edge="1" parent="IT3nphw8xW6kMLgiiqp9-551" source="IT3nphw8xW6kMLgiiqp9-24" target="IT3nphw8xW6kMLgiiqp9-19">
          <mxGeometry width="50" height="50" relative="1" as="geometry">
            <mxPoint x="110" y="85.81" as="sourcePoint" />
            <mxPoint x="70.98429830771823" y="114.18457791680561" as="targetPoint" />
          </mxGeometry>
        </mxCell>
        <mxCell id="IT3nphw8xW6kMLgiiqp9-23" style="edgeStyle=orthogonalEdgeStyle;rounded=0;orthogonalLoop=1;jettySize=auto;html=1;exitX=0;exitY=0;exitDx=0;exitDy=0;fontSize=8;fontStyle=1;verticalAlign=middle;" edge="1" parent="IT3nphw8xW6kMLgiiqp9-551" source="IT3nphw8xW6kMLgiiqp9-24">
          <mxGeometry relative="1" as="geometry">
            <mxPoint x="57.19047619047615" y="54.47619047619048" as="targetPoint" />
          </mxGeometry>
        </mxCell>
        <mxCell id="IT3nphw8xW6kMLgiiqp9-24" value="street" style="ellipse;whiteSpace=wrap;html=1;fontSize=8;fontStyle=1;verticalAlign=middle;container=0;" vertex="1" parent="IT3nphw8xW6kMLgiiqp9-551">
          <mxGeometry x="50" y="50.18000000000001" width="50" height="30" as="geometry" />
        </mxCell>
        <mxCell id="IT3nphw8xW6kMLgiiqp9-25" value="" style="endArrow=none;html=1;rounded=0;entryX=1;entryY=0;entryDx=0;entryDy=0;exitX=0.372;exitY=0.99;exitDx=0;exitDy=0;exitPerimeter=0;fontSize=8;fontStyle=1;verticalAlign=middle;" edge="1" parent="IT3nphw8xW6kMLgiiqp9-551" source="IT3nphw8xW6kMLgiiqp9-26" target="IT3nphw8xW6kMLgiiqp9-19">
          <mxGeometry width="50" height="50" relative="1" as="geometry">
            <mxPoint x="110" y="94.18" as="sourcePoint" />
            <mxPoint x="76" y="127.18" as="targetPoint" />
          </mxGeometry>
        </mxCell>
        <mxCell id="IT3nphw8xW6kMLgiiqp9-26" value="postal_code" style="ellipse;whiteSpace=wrap;html=1;fontSize=8;fontStyle=1;verticalAlign=middle;container=0;" vertex="1" parent="IT3nphw8xW6kMLgiiqp9-551">
          <mxGeometry x="90" y="74.18" width="50" height="30" as="geometry" />
        </mxCell>
        <mxCell id="IT3nphw8xW6kMLgiiqp9-27" value="" style="endArrow=none;html=1;rounded=0;entryX=0;entryY=0;entryDx=0;entryDy=0;exitX=0.591;exitY=1.022;exitDx=0;exitDy=0;exitPerimeter=0;fontSize=8;fontStyle=1;verticalAlign=middle;" edge="1" parent="IT3nphw8xW6kMLgiiqp9-551" source="IT3nphw8xW6kMLgiiqp9-28">
          <mxGeometry width="50" height="50" relative="1" as="geometry">
            <mxPoint x="60" y="50.18000000000001" as="sourcePoint" />
            <mxPoint x="57" y="54" as="targetPoint" />
          </mxGeometry>
        </mxCell>
        <mxCell id="IT3nphw8xW6kMLgiiqp9-28" value="street_no" style="ellipse;whiteSpace=wrap;html=1;fontSize=8;fontStyle=1;verticalAlign=middle;container=0;" vertex="1" parent="IT3nphw8xW6kMLgiiqp9-551">
          <mxGeometry y="20" width="50" height="30" as="geometry" />
        </mxCell>
        <mxCell id="IT3nphw8xW6kMLgiiqp9-29" value="" style="endArrow=none;html=1;rounded=0;exitX=0.591;exitY=1.022;exitDx=0;exitDy=0;exitPerimeter=0;entryX=0.5;entryY=0;entryDx=0;entryDy=0;fontSize=8;fontStyle=1;verticalAlign=middle;" edge="1" parent="IT3nphw8xW6kMLgiiqp9-551" source="IT3nphw8xW6kMLgiiqp9-30">
          <mxGeometry width="50" height="50" relative="1" as="geometry">
            <mxPoint x="110" y="31.810000000000002" as="sourcePoint" />
            <mxPoint x="75" y="50" as="targetPoint" />
          </mxGeometry>
        </mxCell>
        <mxCell id="IT3nphw8xW6kMLgiiqp9-30" value="street_name" style="ellipse;whiteSpace=wrap;html=1;fontSize=8;fontStyle=1;verticalAlign=middle;container=0;" vertex="1" parent="IT3nphw8xW6kMLgiiqp9-551">
          <mxGeometry x="50" width="50" height="30" as="geometry" />
        </mxCell>
        <mxCell id="IT3nphw8xW6kMLgiiqp9-31" value="" style="endArrow=none;html=1;rounded=0;entryX=1;entryY=0;entryDx=0;entryDy=0;exitX=0.372;exitY=0.99;exitDx=0;exitDy=0;exitPerimeter=0;fontSize=8;fontStyle=1;verticalAlign=middle;" edge="1" parent="IT3nphw8xW6kMLgiiqp9-551" source="IT3nphw8xW6kMLgiiqp9-32">
          <mxGeometry width="50" height="50" relative="1" as="geometry">
            <mxPoint x="110" y="40.18000000000001" as="sourcePoint" />
            <mxPoint x="93" y="54" as="targetPoint" />
          </mxGeometry>
        </mxCell>
        <mxCell id="IT3nphw8xW6kMLgiiqp9-32" value="apartment_&lt;div&gt;name&lt;/div&gt;" style="ellipse;whiteSpace=wrap;html=1;fontSize=8;fontStyle=1;verticalAlign=middle;container=0;" vertex="1" parent="IT3nphw8xW6kMLgiiqp9-551">
          <mxGeometry x="100" y="20" width="50" height="30" as="geometry" />
        </mxCell>
        <mxCell id="IT3nphw8xW6kMLgiiqp9-33" value="phone_no" style="ellipse;whiteSpace=wrap;html=1;fontSize=8;fontStyle=1;verticalAlign=middle;container=0;" vertex="1" parent="IT3nphw8xW6kMLgiiqp9-551">
          <mxGeometry x="305" y="35" width="40" height="20" as="geometry" />
        </mxCell>
        <mxCell id="IT3nphw8xW6kMLgiiqp9-35" value="email" style="ellipse;whiteSpace=wrap;html=1;fontSize=8;fontStyle=1;verticalAlign=middle;container=0;" vertex="1" parent="IT3nphw8xW6kMLgiiqp9-551">
          <mxGeometry x="255" width="50" height="30" as="geometry" />
        </mxCell>
        <mxCell id="IT3nphw8xW6kMLgiiqp9-36" value="email" style="ellipse;whiteSpace=wrap;html=1;fontSize=8;fontStyle=1;verticalAlign=middle;container=0;" vertex="1" parent="IT3nphw8xW6kMLgiiqp9-551">
          <mxGeometry x="262.5" y="5" width="35" height="20" as="geometry" />
        </mxCell>
        <mxCell id="IT3nphw8xW6kMLgiiqp9-552" value="" style="group" vertex="1" connectable="0" parent="1">
          <mxGeometry x="125" y="-240" width="170" height="59" as="geometry" />
        </mxCell>
        <mxCell id="IT3nphw8xW6kMLgiiqp9-91" value="boooking" style="rounded=0;whiteSpace=wrap;html=1;fontSize=8;fontStyle=1;verticalAlign=middle;container=0;" vertex="1" parent="IT3nphw8xW6kMLgiiqp9-552">
          <mxGeometry x="30" y="32.69" width="50" height="26.31" as="geometry" />
        </mxCell>
        <mxCell id="IT3nphw8xW6kMLgiiqp9-92" value="" style="endArrow=none;html=1;rounded=0;exitX=0.114;exitY=0.004;exitDx=0;exitDy=0;exitPerimeter=0;entryX=0.477;entryY=1.082;entryDx=0;entryDy=0;entryPerimeter=0;fontSize=8;fontStyle=1;verticalAlign=middle;" edge="1" parent="IT3nphw8xW6kMLgiiqp9-552" source="IT3nphw8xW6kMLgiiqp9-91" target="IT3nphw8xW6kMLgiiqp9-93">
          <mxGeometry width="50" height="50" relative="1" as="geometry">
            <mxPoint x="40" y="23.921072412929107" as="sourcePoint" />
            <mxPoint x="30" y="6.38160861939366" as="targetPoint" />
          </mxGeometry>
        </mxCell>
        <mxCell id="IT3nphw8xW6kMLgiiqp9-93" value="&lt;font&gt;&lt;u&gt;booking_id&lt;/u&gt;&lt;/font&gt;" style="ellipse;whiteSpace=wrap;html=1;fontSize=8;fontStyle=1;verticalAlign=middle;container=0;" vertex="1" parent="IT3nphw8xW6kMLgiiqp9-552">
          <mxGeometry y="6.539463793535447" width="60" height="17.539463793535457" as="geometry" />
        </mxCell>
        <mxCell id="IT3nphw8xW6kMLgiiqp9-94" value="" style="endArrow=none;html=1;rounded=0;exitX=0.5;exitY=0;exitDx=0;exitDy=0;entryX=0.477;entryY=1.082;entryDx=0;entryDy=0;entryPerimeter=0;fontSize=8;fontStyle=1;verticalAlign=middle;" edge="1" parent="IT3nphw8xW6kMLgiiqp9-552" source="IT3nphw8xW6kMLgiiqp9-91" target="IT3nphw8xW6kMLgiiqp9-95">
          <mxGeometry width="50" height="50" relative="1" as="geometry">
            <mxPoint x="90" y="32.69080430969683" as="sourcePoint" />
            <mxPoint x="80" y="6.38160861939366" as="targetPoint" />
          </mxGeometry>
        </mxCell>
        <mxCell id="IT3nphw8xW6kMLgiiqp9-95" value="Date" style="ellipse;whiteSpace=wrap;html=1;fontSize=8;fontStyle=1;verticalAlign=middle;container=0;" vertex="1" parent="IT3nphw8xW6kMLgiiqp9-552">
          <mxGeometry x="70" width="40" height="17.539463793535457" as="geometry" />
        </mxCell>
        <mxCell id="IT3nphw8xW6kMLgiiqp9-96" value="activity_type" style="ellipse;whiteSpace=wrap;html=1;fontSize=8;fontStyle=1;verticalAlign=middle;container=0;" vertex="1" parent="IT3nphw8xW6kMLgiiqp9-552">
          <mxGeometry x="110" y="17.54000000000002" width="60" height="17.54" as="geometry" />
        </mxCell>
        <mxCell id="IT3nphw8xW6kMLgiiqp9-97" value="" style="endArrow=none;html=1;rounded=0;exitX=1;exitY=0;exitDx=0;exitDy=0;entryX=0;entryY=0.5;entryDx=0;entryDy=0;fontSize=8;fontStyle=1;verticalAlign=middle;" edge="1" parent="IT3nphw8xW6kMLgiiqp9-552" source="IT3nphw8xW6kMLgiiqp9-91" target="IT3nphw8xW6kMLgiiqp9-96">
          <mxGeometry width="50" height="50" relative="1" as="geometry">
            <mxPoint x="65" y="43" as="sourcePoint" />
            <mxPoint x="99" y="29" as="targetPoint" />
          </mxGeometry>
        </mxCell>
        <mxCell id="IT3nphw8xW6kMLgiiqp9-553" value="" style="group" vertex="1" connectable="0" parent="1">
          <mxGeometry x="65" y="325" width="380" height="180" as="geometry" />
        </mxCell>
        <mxCell id="IT3nphw8xW6kMLgiiqp9-332" value="deduction" style="ellipse;whiteSpace=wrap;html=1;fontSize=8;fontStyle=1;verticalAlign=middle;container=0;" vertex="1" parent="IT3nphw8xW6kMLgiiqp9-553">
          <mxGeometry x="70" y="160" width="40" height="20" as="geometry" />
        </mxCell>
        <mxCell id="IT3nphw8xW6kMLgiiqp9-333" value="" style="endArrow=none;html=1;rounded=0;fontSize=8;fontStyle=1;entryX=1;entryY=0.5;entryDx=0;entryDy=0;exitX=0;exitY=1;exitDx=0;exitDy=0;verticalAlign=middle;" edge="1" parent="IT3nphw8xW6kMLgiiqp9-553" source="IT3nphw8xW6kMLgiiqp9-267" target="IT3nphw8xW6kMLgiiqp9-332">
          <mxGeometry width="50" height="50" relative="1" as="geometry">
            <mxPoint x="400" y="50" as="sourcePoint" />
            <mxPoint x="430" y="35" as="targetPoint" />
          </mxGeometry>
        </mxCell>
        <mxCell id="IT3nphw8xW6kMLgiiqp9-267" value="staff" style="rounded=0;whiteSpace=wrap;html=1;fontSize=8;fontStyle=1;verticalAlign=middle;container=0;" vertex="1" parent="IT3nphw8xW6kMLgiiqp9-553">
          <mxGeometry x="160" y="110" width="140" height="40" as="geometry" />
        </mxCell>
        <mxCell id="IT3nphw8xW6kMLgiiqp9-268" value="salary" style="ellipse;whiteSpace=wrap;html=1;fontSize=8;fontStyle=1;verticalAlign=middle;container=0;" vertex="1" parent="IT3nphw8xW6kMLgiiqp9-553">
          <mxGeometry x="340" y="130" width="40" height="20" as="geometry" />
        </mxCell>
        <mxCell id="IT3nphw8xW6kMLgiiqp9-269" value="" style="endArrow=none;html=1;rounded=0;fontSize=8;fontStyle=1;entryX=0;entryY=0.5;entryDx=0;entryDy=0;exitX=1;exitY=1;exitDx=0;exitDy=0;verticalAlign=middle;" edge="1" parent="IT3nphw8xW6kMLgiiqp9-553" source="IT3nphw8xW6kMLgiiqp9-267" target="IT3nphw8xW6kMLgiiqp9-268">
          <mxGeometry width="50" height="50" relative="1" as="geometry">
            <mxPoint x="390" y="95" as="sourcePoint" />
            <mxPoint x="341" y="199" as="targetPoint" />
          </mxGeometry>
        </mxCell>
        <mxCell id="IT3nphw8xW6kMLgiiqp9-270" value="role" style="ellipse;whiteSpace=wrap;html=1;fontSize=8;fontStyle=1;verticalAlign=middle;container=0;" vertex="1" parent="IT3nphw8xW6kMLgiiqp9-553">
          <mxGeometry x="50" y="140" width="40" height="20" as="geometry" />
        </mxCell>
        <mxCell id="IT3nphw8xW6kMLgiiqp9-271" value="" style="endArrow=none;html=1;rounded=0;exitX=0.114;exitY=0.004;exitDx=0;exitDy=0;exitPerimeter=0;entryX=0.477;entryY=1.082;entryDx=0;entryDy=0;entryPerimeter=0;fontSize=8;fontStyle=1;verticalAlign=middle;" edge="1" parent="IT3nphw8xW6kMLgiiqp9-553" source="IT3nphw8xW6kMLgiiqp9-267" target="IT3nphw8xW6kMLgiiqp9-278">
          <mxGeometry width="50" height="50" relative="1" as="geometry">
            <mxPoint x="170" y="100" as="sourcePoint" />
            <mxPoint x="160" y="80" as="targetPoint" />
          </mxGeometry>
        </mxCell>
        <mxCell id="IT3nphw8xW6kMLgiiqp9-272" value="" style="endArrow=none;html=1;rounded=0;exitX=0.004;exitY=0.433;exitDx=0;exitDy=0;entryX=1;entryY=0.5;entryDx=0;entryDy=0;exitPerimeter=0;fontSize=8;fontStyle=1;verticalAlign=middle;" edge="1" parent="IT3nphw8xW6kMLgiiqp9-553" source="IT3nphw8xW6kMLgiiqp9-267" target="IT3nphw8xW6kMLgiiqp9-292">
          <mxGeometry width="50" height="50" relative="1" as="geometry">
            <mxPoint x="160" y="114.18" as="sourcePoint" />
            <mxPoint x="70" y="114.18" as="targetPoint" />
          </mxGeometry>
        </mxCell>
        <mxCell id="IT3nphw8xW6kMLgiiqp9-273" value="" style="endArrow=none;html=1;rounded=0;exitX=1;exitY=0.5;exitDx=0;exitDy=0;fontSize=8;fontStyle=1;entryX=0.287;entryY=0.967;entryDx=0;entryDy=0;entryPerimeter=0;verticalAlign=middle;" edge="1" parent="IT3nphw8xW6kMLgiiqp9-553" source="IT3nphw8xW6kMLgiiqp9-267" target="IT3nphw8xW6kMLgiiqp9-310">
          <mxGeometry width="50" height="50" relative="1" as="geometry">
            <mxPoint x="230" y="120" as="sourcePoint" />
            <mxPoint x="330" y="130" as="targetPoint" />
          </mxGeometry>
        </mxCell>
        <mxCell id="IT3nphw8xW6kMLgiiqp9-274" value="" style="endArrow=none;html=1;rounded=0;entryX=0;entryY=0.75;entryDx=0;entryDy=0;exitX=1;exitY=0.5;exitDx=0;exitDy=0;verticalAlign=middle;" edge="1" parent="IT3nphw8xW6kMLgiiqp9-553" source="IT3nphw8xW6kMLgiiqp9-270" target="IT3nphw8xW6kMLgiiqp9-267">
          <mxGeometry width="50" height="50" relative="1" as="geometry">
            <mxPoint x="35" y="240" as="sourcePoint" />
            <mxPoint x="85" y="190" as="targetPoint" />
          </mxGeometry>
        </mxCell>
        <mxCell id="IT3nphw8xW6kMLgiiqp9-275" value="" style="endArrow=none;html=1;rounded=0;fontSize=8;fontStyle=1;entryX=0;entryY=0.5;entryDx=0;entryDy=0;exitX=1;exitY=0;exitDx=0;exitDy=0;verticalAlign=middle;" edge="1" parent="IT3nphw8xW6kMLgiiqp9-553" source="IT3nphw8xW6kMLgiiqp9-267" target="IT3nphw8xW6kMLgiiqp9-311">
          <mxGeometry width="50" height="50" relative="1" as="geometry">
            <mxPoint x="390" y="30" as="sourcePoint" />
            <mxPoint x="341" y="134" as="targetPoint" />
          </mxGeometry>
        </mxCell>
        <mxCell id="IT3nphw8xW6kMLgiiqp9-311" value="overtime" style="ellipse;whiteSpace=wrap;html=1;fontSize=8;fontStyle=1;verticalAlign=middle;container=0;" vertex="1" parent="IT3nphw8xW6kMLgiiqp9-553">
          <mxGeometry x="340" y="75" width="40" height="20" as="geometry" />
        </mxCell>
        <mxCell id="IT3nphw8xW6kMLgiiqp9-278" value="&lt;font&gt;&lt;u&gt;staffid&lt;/u&gt;&lt;/font&gt;" style="ellipse;whiteSpace=wrap;html=1;fontSize=8;fontStyle=1;verticalAlign=middle;container=0;" vertex="1" parent="IT3nphw8xW6kMLgiiqp9-553">
          <mxGeometry x="150" y="80.18" width="40" height="20" as="geometry" />
        </mxCell>
        <mxCell id="IT3nphw8xW6kMLgiiqp9-279" value="" style="endArrow=none;html=1;rounded=0;exitX=0.114;exitY=0.004;exitDx=0;exitDy=0;exitPerimeter=0;entryX=0.477;entryY=1.082;entryDx=0;entryDy=0;entryPerimeter=0;fontSize=8;fontStyle=1;verticalAlign=middle;" edge="1" parent="IT3nphw8xW6kMLgiiqp9-553" target="IT3nphw8xW6kMLgiiqp9-280">
          <mxGeometry width="50" height="50" relative="1" as="geometry">
            <mxPoint x="220" y="110" as="sourcePoint" />
            <mxPoint x="210" y="80" as="targetPoint" />
          </mxGeometry>
        </mxCell>
        <mxCell id="IT3nphw8xW6kMLgiiqp9-280" value="name" style="ellipse;whiteSpace=wrap;html=1;fontSize=8;fontStyle=1;verticalAlign=middle;container=0;" vertex="1" parent="IT3nphw8xW6kMLgiiqp9-553">
          <mxGeometry x="200" y="70" width="40" height="20" as="geometry" />
        </mxCell>
        <mxCell id="IT3nphw8xW6kMLgiiqp9-281" value="" style="endArrow=none;html=1;rounded=0;entryX=0;entryY=0;entryDx=0;entryDy=0;exitX=0.591;exitY=1.022;exitDx=0;exitDy=0;exitPerimeter=0;fontSize=8;fontStyle=1;verticalAlign=middle;" edge="1" parent="IT3nphw8xW6kMLgiiqp9-553" source="IT3nphw8xW6kMLgiiqp9-282" target="IT3nphw8xW6kMLgiiqp9-280">
          <mxGeometry width="50" height="50" relative="1" as="geometry">
            <mxPoint x="200" y="70" as="sourcePoint" />
            <mxPoint x="210" y="140" as="targetPoint" />
          </mxGeometry>
        </mxCell>
        <mxCell id="IT3nphw8xW6kMLgiiqp9-282" value="first_name" style="ellipse;whiteSpace=wrap;html=1;fontSize=8;fontStyle=1;verticalAlign=middle;container=0;" vertex="1" parent="IT3nphw8xW6kMLgiiqp9-553">
          <mxGeometry x="160" y="40" width="50" height="30" as="geometry" />
        </mxCell>
        <mxCell id="IT3nphw8xW6kMLgiiqp9-283" value="" style="endArrow=none;html=1;rounded=0;exitX=0.5;exitY=1;exitDx=0;exitDy=0;fontSize=8;fontStyle=1;verticalAlign=middle;" edge="1" parent="IT3nphw8xW6kMLgiiqp9-553" source="IT3nphw8xW6kMLgiiqp9-284">
          <mxGeometry width="50" height="50" relative="1" as="geometry">
            <mxPoint x="250" y="51.629999999999995" as="sourcePoint" />
            <mxPoint x="220" y="70" as="targetPoint" />
          </mxGeometry>
        </mxCell>
        <mxCell id="IT3nphw8xW6kMLgiiqp9-284" value="middle_name" style="ellipse;whiteSpace=wrap;html=1;fontSize=8;fontStyle=1;verticalAlign=middle;container=0;" vertex="1" parent="IT3nphw8xW6kMLgiiqp9-553">
          <mxGeometry x="185" y="10" width="70" height="30" as="geometry" />
        </mxCell>
        <mxCell id="IT3nphw8xW6kMLgiiqp9-285" value="" style="endArrow=none;html=1;rounded=0;entryX=1;entryY=0;entryDx=0;entryDy=0;exitX=0.372;exitY=0.99;exitDx=0;exitDy=0;exitPerimeter=0;fontSize=8;fontStyle=1;verticalAlign=middle;" edge="1" parent="IT3nphw8xW6kMLgiiqp9-553" source="IT3nphw8xW6kMLgiiqp9-286" target="IT3nphw8xW6kMLgiiqp9-280">
          <mxGeometry width="50" height="50" relative="1" as="geometry">
            <mxPoint x="250" y="60" as="sourcePoint" />
            <mxPoint x="216" y="93" as="targetPoint" />
          </mxGeometry>
        </mxCell>
        <mxCell id="IT3nphw8xW6kMLgiiqp9-286" value="last_name" style="ellipse;whiteSpace=wrap;html=1;fontSize=8;fontStyle=1;verticalAlign=middle;container=0;" vertex="1" parent="IT3nphw8xW6kMLgiiqp9-553">
          <mxGeometry x="230" y="40" width="50" height="30" as="geometry" />
        </mxCell>
        <mxCell id="IT3nphw8xW6kMLgiiqp9-287" value="" style="endArrow=none;html=1;rounded=0;entryX=0.323;entryY=0.914;entryDx=0;entryDy=0;entryPerimeter=0;fontSize=8;fontStyle=1;verticalAlign=middle;" edge="1" parent="IT3nphw8xW6kMLgiiqp9-553" target="IT3nphw8xW6kMLgiiqp9-288">
          <mxGeometry width="50" height="50" relative="1" as="geometry">
            <mxPoint x="270" y="110" as="sourcePoint" />
            <mxPoint x="280" y="90" as="targetPoint" />
          </mxGeometry>
        </mxCell>
        <mxCell id="IT3nphw8xW6kMLgiiqp9-288" value="contact_info" style="ellipse;whiteSpace=wrap;html=1;fontSize=8;fontStyle=1;verticalAlign=middle;container=0;" vertex="1" parent="IT3nphw8xW6kMLgiiqp9-553">
          <mxGeometry x="280" y="70" width="60" height="20" as="geometry" />
        </mxCell>
        <mxCell id="IT3nphw8xW6kMLgiiqp9-289" value="" style="endArrow=none;html=1;rounded=0;exitX=0.591;exitY=1.022;exitDx=0;exitDy=0;exitPerimeter=0;entryX=0.5;entryY=0;entryDx=0;entryDy=0;fontSize=8;fontStyle=1;verticalAlign=middle;" edge="1" parent="IT3nphw8xW6kMLgiiqp9-553" source="IT3nphw8xW6kMLgiiqp9-308" target="IT3nphw8xW6kMLgiiqp9-288">
          <mxGeometry width="50" height="50" relative="1" as="geometry">
            <mxPoint x="330" y="60" as="sourcePoint" />
            <mxPoint x="336" y="63" as="targetPoint" />
          </mxGeometry>
        </mxCell>
        <mxCell id="IT3nphw8xW6kMLgiiqp9-290" value="" style="endArrow=none;html=1;rounded=0;exitX=0.372;exitY=0.99;exitDx=0;exitDy=0;exitPerimeter=0;fontSize=8;fontStyle=1;verticalAlign=middle;" edge="1" parent="IT3nphw8xW6kMLgiiqp9-553" source="IT3nphw8xW6kMLgiiqp9-291">
          <mxGeometry width="50" height="50" relative="1" as="geometry">
            <mxPoint x="380" y="50" as="sourcePoint" />
            <mxPoint x="310" y="70" as="targetPoint" />
          </mxGeometry>
        </mxCell>
        <mxCell id="IT3nphw8xW6kMLgiiqp9-291" value="" style="ellipse;whiteSpace=wrap;html=1;fontSize=8;fontStyle=1;verticalAlign=middle;container=0;" vertex="1" parent="IT3nphw8xW6kMLgiiqp9-553">
          <mxGeometry x="300" y="30" width="50" height="30" as="geometry" />
        </mxCell>
        <mxCell id="IT3nphw8xW6kMLgiiqp9-292" value="Address" style="ellipse;whiteSpace=wrap;html=1;fontSize=8;fontStyle=1;verticalAlign=middle;container=0;" vertex="1" parent="IT3nphw8xW6kMLgiiqp9-553">
          <mxGeometry x="50" y="104.18" width="50" height="25.82" as="geometry" />
        </mxCell>
        <mxCell id="IT3nphw8xW6kMLgiiqp9-293" value="" style="endArrow=none;html=1;rounded=0;entryX=0;entryY=0;entryDx=0;entryDy=0;exitX=0.591;exitY=1.022;exitDx=0;exitDy=0;exitPerimeter=0;fontSize=8;fontStyle=1;verticalAlign=middle;" edge="1" parent="IT3nphw8xW6kMLgiiqp9-553" source="IT3nphw8xW6kMLgiiqp9-294" target="IT3nphw8xW6kMLgiiqp9-292">
          <mxGeometry width="50" height="50" relative="1" as="geometry">
            <mxPoint x="60" y="104.18" as="sourcePoint" />
            <mxPoint x="70" y="174.18000000000006" as="targetPoint" />
          </mxGeometry>
        </mxCell>
        <mxCell id="IT3nphw8xW6kMLgiiqp9-294" value="city" style="ellipse;whiteSpace=wrap;html=1;fontSize=8;fontStyle=1;verticalAlign=middle;container=0;" vertex="1" parent="IT3nphw8xW6kMLgiiqp9-553">
          <mxGeometry x="10" y="74.18" width="50" height="30" as="geometry" />
        </mxCell>
        <mxCell id="IT3nphw8xW6kMLgiiqp9-295" value="" style="endArrow=none;html=1;rounded=0;exitX=0.591;exitY=1.022;exitDx=0;exitDy=0;exitPerimeter=0;entryX=0.5;entryY=0;entryDx=0;entryDy=0;fontSize=8;fontStyle=1;verticalAlign=middle;" edge="1" parent="IT3nphw8xW6kMLgiiqp9-553" source="IT3nphw8xW6kMLgiiqp9-297" target="IT3nphw8xW6kMLgiiqp9-292">
          <mxGeometry width="50" height="50" relative="1" as="geometry">
            <mxPoint x="110" y="85.81" as="sourcePoint" />
            <mxPoint x="70.98429830771823" y="114.18457791680561" as="targetPoint" />
          </mxGeometry>
        </mxCell>
        <mxCell id="IT3nphw8xW6kMLgiiqp9-296" style="edgeStyle=orthogonalEdgeStyle;rounded=0;orthogonalLoop=1;jettySize=auto;html=1;exitX=0;exitY=0;exitDx=0;exitDy=0;fontSize=8;fontStyle=1;verticalAlign=middle;" edge="1" parent="IT3nphw8xW6kMLgiiqp9-553" source="IT3nphw8xW6kMLgiiqp9-297">
          <mxGeometry relative="1" as="geometry">
            <mxPoint x="57.19047619047615" y="54.47619047619048" as="targetPoint" />
          </mxGeometry>
        </mxCell>
        <mxCell id="IT3nphw8xW6kMLgiiqp9-297" value="street" style="ellipse;whiteSpace=wrap;html=1;fontSize=8;fontStyle=1;verticalAlign=middle;container=0;" vertex="1" parent="IT3nphw8xW6kMLgiiqp9-553">
          <mxGeometry x="50" y="50.18000000000001" width="50" height="30" as="geometry" />
        </mxCell>
        <mxCell id="IT3nphw8xW6kMLgiiqp9-298" value="" style="endArrow=none;html=1;rounded=0;entryX=1;entryY=0;entryDx=0;entryDy=0;exitX=0.372;exitY=0.99;exitDx=0;exitDy=0;exitPerimeter=0;fontSize=8;fontStyle=1;verticalAlign=middle;" edge="1" parent="IT3nphw8xW6kMLgiiqp9-553" source="IT3nphw8xW6kMLgiiqp9-299" target="IT3nphw8xW6kMLgiiqp9-292">
          <mxGeometry width="50" height="50" relative="1" as="geometry">
            <mxPoint x="110" y="94.18" as="sourcePoint" />
            <mxPoint x="76" y="127.18000000000006" as="targetPoint" />
          </mxGeometry>
        </mxCell>
        <mxCell id="IT3nphw8xW6kMLgiiqp9-299" value="postal_code" style="ellipse;whiteSpace=wrap;html=1;fontSize=8;fontStyle=1;verticalAlign=middle;container=0;" vertex="1" parent="IT3nphw8xW6kMLgiiqp9-553">
          <mxGeometry x="90" y="74.18" width="50" height="30" as="geometry" />
        </mxCell>
        <mxCell id="IT3nphw8xW6kMLgiiqp9-300" value="" style="endArrow=none;html=1;rounded=0;entryX=0;entryY=0;entryDx=0;entryDy=0;exitX=0.591;exitY=1.022;exitDx=0;exitDy=0;exitPerimeter=0;fontSize=8;fontStyle=1;verticalAlign=middle;" edge="1" parent="IT3nphw8xW6kMLgiiqp9-553" source="IT3nphw8xW6kMLgiiqp9-301">
          <mxGeometry width="50" height="50" relative="1" as="geometry">
            <mxPoint x="60" y="50.18000000000001" as="sourcePoint" />
            <mxPoint x="57" y="54" as="targetPoint" />
          </mxGeometry>
        </mxCell>
        <mxCell id="IT3nphw8xW6kMLgiiqp9-301" value="street_no" style="ellipse;whiteSpace=wrap;html=1;fontSize=8;fontStyle=1;verticalAlign=middle;container=0;" vertex="1" parent="IT3nphw8xW6kMLgiiqp9-553">
          <mxGeometry y="20" width="50" height="30" as="geometry" />
        </mxCell>
        <mxCell id="IT3nphw8xW6kMLgiiqp9-302" value="" style="endArrow=none;html=1;rounded=0;exitX=0.591;exitY=1.022;exitDx=0;exitDy=0;exitPerimeter=0;entryX=0.5;entryY=0;entryDx=0;entryDy=0;fontSize=8;fontStyle=1;verticalAlign=middle;" edge="1" parent="IT3nphw8xW6kMLgiiqp9-553" source="IT3nphw8xW6kMLgiiqp9-303">
          <mxGeometry width="50" height="50" relative="1" as="geometry">
            <mxPoint x="110" y="31.810000000000002" as="sourcePoint" />
            <mxPoint x="75" y="50" as="targetPoint" />
          </mxGeometry>
        </mxCell>
        <mxCell id="IT3nphw8xW6kMLgiiqp9-303" value="street_name" style="ellipse;whiteSpace=wrap;html=1;fontSize=8;fontStyle=1;verticalAlign=middle;container=0;" vertex="1" parent="IT3nphw8xW6kMLgiiqp9-553">
          <mxGeometry x="50" width="50" height="30" as="geometry" />
        </mxCell>
        <mxCell id="IT3nphw8xW6kMLgiiqp9-304" value="" style="endArrow=none;html=1;rounded=0;entryX=1;entryY=0;entryDx=0;entryDy=0;exitX=0.372;exitY=0.99;exitDx=0;exitDy=0;exitPerimeter=0;fontSize=8;fontStyle=1;verticalAlign=middle;" edge="1" parent="IT3nphw8xW6kMLgiiqp9-553" source="IT3nphw8xW6kMLgiiqp9-305">
          <mxGeometry width="50" height="50" relative="1" as="geometry">
            <mxPoint x="110" y="40.18000000000001" as="sourcePoint" />
            <mxPoint x="93" y="54" as="targetPoint" />
          </mxGeometry>
        </mxCell>
        <mxCell id="IT3nphw8xW6kMLgiiqp9-305" value="apartment_&lt;div&gt;name&lt;/div&gt;" style="ellipse;whiteSpace=wrap;html=1;fontSize=8;fontStyle=1;verticalAlign=middle;container=0;" vertex="1" parent="IT3nphw8xW6kMLgiiqp9-553">
          <mxGeometry x="100" y="20" width="50" height="30" as="geometry" />
        </mxCell>
        <mxCell id="IT3nphw8xW6kMLgiiqp9-306" value="phone_no" style="ellipse;whiteSpace=wrap;html=1;fontSize=8;fontStyle=1;verticalAlign=middle;container=0;" vertex="1" parent="IT3nphw8xW6kMLgiiqp9-553">
          <mxGeometry x="305" y="35" width="40" height="20" as="geometry" />
        </mxCell>
        <mxCell id="IT3nphw8xW6kMLgiiqp9-310" value="role" style="ellipse;whiteSpace=wrap;html=1;fontSize=8;fontStyle=1;verticalAlign=middle;container=0;" vertex="1" parent="IT3nphw8xW6kMLgiiqp9-553">
          <mxGeometry x="320" y="104.17999999999995" width="40" height="20" as="geometry" />
        </mxCell>
        <mxCell id="IT3nphw8xW6kMLgiiqp9-308" value="email" style="ellipse;whiteSpace=wrap;html=1;fontSize=8;fontStyle=1;verticalAlign=middle;container=0;" vertex="1" parent="IT3nphw8xW6kMLgiiqp9-553">
          <mxGeometry x="255" width="50" height="30" as="geometry" />
        </mxCell>
        <mxCell id="IT3nphw8xW6kMLgiiqp9-309" value="email" style="ellipse;whiteSpace=wrap;html=1;fontSize=8;fontStyle=1;verticalAlign=middle;container=0;" vertex="1" parent="IT3nphw8xW6kMLgiiqp9-553">
          <mxGeometry x="262.5" y="5" width="35" height="20" as="geometry" />
        </mxCell>
        <mxCell id="IT3nphw8xW6kMLgiiqp9-554" value="" style="group" vertex="1" connectable="0" parent="1">
          <mxGeometry x="120" y="-460" width="180" height="70" as="geometry" />
        </mxCell>
        <mxCell id="IT3nphw8xW6kMLgiiqp9-64" value="slot" style="rounded=0;whiteSpace=wrap;html=1;fontSize=8;fontStyle=1;verticalAlign=middle;container=0;" vertex="1" parent="IT3nphw8xW6kMLgiiqp9-554">
          <mxGeometry x="30" y="43.69080430969683" width="80" height="26.309195690303184" as="geometry" />
        </mxCell>
        <mxCell id="IT3nphw8xW6kMLgiiqp9-65" value="" style="endArrow=none;html=1;rounded=0;exitX=0.114;exitY=0.004;exitDx=0;exitDy=0;exitPerimeter=0;entryX=0.477;entryY=1.082;entryDx=0;entryDy=0;entryPerimeter=0;fontSize=8;fontStyle=1;verticalAlign=middle;" edge="1" parent="IT3nphw8xW6kMLgiiqp9-554" source="IT3nphw8xW6kMLgiiqp9-64" target="IT3nphw8xW6kMLgiiqp9-66">
          <mxGeometry width="50" height="50" relative="1" as="geometry">
            <mxPoint x="40" y="34.92107241292911" as="sourcePoint" />
            <mxPoint x="30" y="17.38160861939366" as="targetPoint" />
          </mxGeometry>
        </mxCell>
        <mxCell id="IT3nphw8xW6kMLgiiqp9-66" value="&lt;font&gt;&lt;u&gt;slotid&lt;/u&gt;&lt;/font&gt;" style="ellipse;whiteSpace=wrap;html=1;fontSize=8;fontStyle=1;verticalAlign=middle;container=0;" vertex="1" parent="IT3nphw8xW6kMLgiiqp9-554">
          <mxGeometry y="17.539463793535447" width="60" height="17.539463793535457" as="geometry" />
        </mxCell>
        <mxCell id="IT3nphw8xW6kMLgiiqp9-67" value="" style="endArrow=none;html=1;rounded=0;exitX=0.5;exitY=0;exitDx=0;exitDy=0;entryX=0.477;entryY=1.082;entryDx=0;entryDy=0;entryPerimeter=0;fontSize=8;fontStyle=1;verticalAlign=middle;" edge="1" parent="IT3nphw8xW6kMLgiiqp9-554" source="IT3nphw8xW6kMLgiiqp9-64" target="IT3nphw8xW6kMLgiiqp9-68">
          <mxGeometry width="50" height="50" relative="1" as="geometry">
            <mxPoint x="90" y="43.69080430969683" as="sourcePoint" />
            <mxPoint x="80" y="17.38160861939366" as="targetPoint" />
          </mxGeometry>
        </mxCell>
        <mxCell id="IT3nphw8xW6kMLgiiqp9-68" value="start_time" style="ellipse;whiteSpace=wrap;html=1;fontSize=8;fontStyle=1;verticalAlign=middle;container=0;" vertex="1" parent="IT3nphw8xW6kMLgiiqp9-554">
          <mxGeometry x="50" width="40" height="17.539463793535457" as="geometry" />
        </mxCell>
        <mxCell id="IT3nphw8xW6kMLgiiqp9-69" value="" style="endArrow=none;html=1;rounded=0;entryX=0.323;entryY=0.914;entryDx=0;entryDy=0;entryPerimeter=0;fontSize=8;fontStyle=1;exitX=0.893;exitY=-0.073;exitDx=0;exitDy=0;exitPerimeter=0;verticalAlign=middle;" edge="1" parent="IT3nphw8xW6kMLgiiqp9-554" source="IT3nphw8xW6kMLgiiqp9-64" target="IT3nphw8xW6kMLgiiqp9-70">
          <mxGeometry width="50" height="50" relative="1" as="geometry">
            <mxPoint x="140" y="43.69080430969683" as="sourcePoint" />
            <mxPoint x="150" y="26.151340516161383" as="targetPoint" />
          </mxGeometry>
        </mxCell>
        <mxCell id="IT3nphw8xW6kMLgiiqp9-70" value="encrypt_pass" style="ellipse;whiteSpace=wrap;html=1;fontSize=8;fontStyle=1;verticalAlign=middle;container=0;" vertex="1" parent="IT3nphw8xW6kMLgiiqp9-554">
          <mxGeometry x="90" y="17.539463793535447" width="60" height="17.539463793535457" as="geometry" />
        </mxCell>
        <mxCell id="IT3nphw8xW6kMLgiiqp9-71" value="" style="endArrow=none;html=1;rounded=0;exitX=1;exitY=0.5;exitDx=0;exitDy=0;fontSize=8;fontStyle=1;verticalAlign=middle;" edge="1" parent="IT3nphw8xW6kMLgiiqp9-554" source="IT3nphw8xW6kMLgiiqp9-64" target="IT3nphw8xW6kMLgiiqp9-72">
          <mxGeometry width="50" height="50" relative="1" as="geometry">
            <mxPoint x="120" y="56.84540215484856" as="sourcePoint" />
            <mxPoint x="160" y="52.461608619393644" as="targetPoint" />
          </mxGeometry>
        </mxCell>
        <mxCell id="IT3nphw8xW6kMLgiiqp9-72" value="end_time" style="ellipse;whiteSpace=wrap;html=1;fontSize=8;fontStyle=1;dashed=1;verticalAlign=middle;container=0;" vertex="1" parent="IT3nphw8xW6kMLgiiqp9-554">
          <mxGeometry x="130" y="35.079999999999984" width="50" height="24.92" as="geometry" />
        </mxCell>
        <mxCell id="IT3nphw8xW6kMLgiiqp9-555" value="" style="group" vertex="1" connectable="0" parent="1">
          <mxGeometry x="140" y="-720" width="150" height="90" as="geometry" />
        </mxCell>
        <mxCell id="IT3nphw8xW6kMLgiiqp9-179" value="promotion" style="ellipse;whiteSpace=wrap;html=1;fontSize=8;fontStyle=1;verticalAlign=middle;container=0;" vertex="1" parent="IT3nphw8xW6kMLgiiqp9-555">
          <mxGeometry x="60" width="50" height="17.54" as="geometry" />
        </mxCell>
        <mxCell id="IT3nphw8xW6kMLgiiqp9-180" value="reminder" style="ellipse;whiteSpace=wrap;html=1;fontSize=8;fontStyle=1;verticalAlign=middle;container=0;" vertex="1" parent="IT3nphw8xW6kMLgiiqp9-555">
          <mxGeometry x="110" y="12.460000000000036" width="40" height="17.539463793535457" as="geometry" />
        </mxCell>
        <mxCell id="IT3nphw8xW6kMLgiiqp9-181" value="" style="endArrow=none;html=1;rounded=0;exitX=1;exitY=0;exitDx=0;exitDy=0;fontSize=8;fontStyle=1;verticalAlign=middle;" edge="1" parent="IT3nphw8xW6kMLgiiqp9-555" source="IT3nphw8xW6kMLgiiqp9-176">
          <mxGeometry width="50" height="50" relative="1" as="geometry">
            <mxPoint x="65" y="84" as="sourcePoint" />
            <mxPoint x="130" y="30" as="targetPoint" />
          </mxGeometry>
        </mxCell>
        <mxCell id="IT3nphw8xW6kMLgiiqp9-182" value="" style="endArrow=none;html=1;rounded=0;fontSize=8;fontStyle=1;entryX=0.5;entryY=1;entryDx=0;entryDy=0;verticalAlign=middle;" edge="1" parent="IT3nphw8xW6kMLgiiqp9-555" target="IT3nphw8xW6kMLgiiqp9-179">
          <mxGeometry width="50" height="50" relative="1" as="geometry">
            <mxPoint x="100" y="40" as="sourcePoint" />
            <mxPoint x="140" y="40" as="targetPoint" />
          </mxGeometry>
        </mxCell>
        <mxCell id="IT3nphw8xW6kMLgiiqp9-172" value="notification" style="rounded=0;whiteSpace=wrap;html=1;fontSize=8;fontStyle=1;verticalAlign=middle;container=0;" vertex="1" parent="IT3nphw8xW6kMLgiiqp9-555">
          <mxGeometry x="30" y="73.69000000000005" width="50" height="16.31" as="geometry" />
        </mxCell>
        <mxCell id="IT3nphw8xW6kMLgiiqp9-173" value="" style="endArrow=none;html=1;rounded=0;exitX=0.114;exitY=0.004;exitDx=0;exitDy=0;exitPerimeter=0;entryX=0.477;entryY=1.082;entryDx=0;entryDy=0;entryPerimeter=0;fontSize=8;fontStyle=1;verticalAlign=middle;" edge="1" parent="IT3nphw8xW6kMLgiiqp9-555" source="IT3nphw8xW6kMLgiiqp9-172" target="IT3nphw8xW6kMLgiiqp9-174">
          <mxGeometry width="50" height="50" relative="1" as="geometry">
            <mxPoint x="40" y="64.9210724129291" as="sourcePoint" />
            <mxPoint x="30" y="47.38160861939366" as="targetPoint" />
          </mxGeometry>
        </mxCell>
        <mxCell id="IT3nphw8xW6kMLgiiqp9-174" value="&lt;font&gt;&lt;u&gt;notification_id&lt;/u&gt;&lt;/font&gt;" style="ellipse;whiteSpace=wrap;html=1;fontSize=8;fontStyle=1;verticalAlign=middle;container=0;" vertex="1" parent="IT3nphw8xW6kMLgiiqp9-555">
          <mxGeometry y="47.53946379353545" width="60" height="17.539463793535457" as="geometry" />
        </mxCell>
        <mxCell id="IT3nphw8xW6kMLgiiqp9-175" value="" style="endArrow=none;html=1;rounded=0;exitX=0.5;exitY=0;exitDx=0;exitDy=0;entryX=0.477;entryY=1.082;entryDx=0;entryDy=0;entryPerimeter=0;fontSize=8;fontStyle=1;verticalAlign=middle;" edge="1" parent="IT3nphw8xW6kMLgiiqp9-555" source="IT3nphw8xW6kMLgiiqp9-172" target="IT3nphw8xW6kMLgiiqp9-176">
          <mxGeometry width="50" height="50" relative="1" as="geometry">
            <mxPoint x="90" y="73.69080430969677" as="sourcePoint" />
            <mxPoint x="80" y="47.38160861939366" as="targetPoint" />
          </mxGeometry>
        </mxCell>
        <mxCell id="IT3nphw8xW6kMLgiiqp9-176" value="type" style="ellipse;whiteSpace=wrap;html=1;fontSize=8;fontStyle=1;verticalAlign=middle;container=0;" vertex="1" parent="IT3nphw8xW6kMLgiiqp9-555">
          <mxGeometry x="70" y="41" width="60" height="20" as="geometry" />
        </mxCell>
        <mxCell id="IT3nphw8xW6kMLgiiqp9-177" value="content" style="ellipse;whiteSpace=wrap;html=1;fontSize=8;fontStyle=1;verticalAlign=middle;container=0;" vertex="1" parent="IT3nphw8xW6kMLgiiqp9-555">
          <mxGeometry x="90" y="70" width="60" height="20" as="geometry" />
        </mxCell>
        <mxCell id="IT3nphw8xW6kMLgiiqp9-178" value="" style="endArrow=none;html=1;rounded=0;exitX=1;exitY=0.5;exitDx=0;exitDy=0;entryX=0;entryY=0.5;entryDx=0;entryDy=0;fontSize=8;fontStyle=1;verticalAlign=middle;" edge="1" parent="IT3nphw8xW6kMLgiiqp9-555" source="IT3nphw8xW6kMLgiiqp9-172" target="IT3nphw8xW6kMLgiiqp9-177">
          <mxGeometry width="50" height="50" relative="1" as="geometry">
            <mxPoint x="65" y="84" as="sourcePoint" />
            <mxPoint x="109" y="73" as="targetPoint" />
          </mxGeometry>
        </mxCell>
        <mxCell id="IT3nphw8xW6kMLgiiqp9-556" value="" style="group" vertex="1" connectable="0" parent="1">
          <mxGeometry x="1040" y="-490" width="220" height="100" as="geometry" />
        </mxCell>
        <mxCell id="IT3nphw8xW6kMLgiiqp9-52" value="" style="endArrow=none;html=1;rounded=0;entryX=0.5;entryY=0;entryDx=0;entryDy=0;exitX=0.591;exitY=1.022;exitDx=0;exitDy=0;exitPerimeter=0;fontSize=8;fontStyle=1;verticalAlign=middle;" edge="1" parent="IT3nphw8xW6kMLgiiqp9-556" source="IT3nphw8xW6kMLgiiqp9-53" target="IT3nphw8xW6kMLgiiqp9-46">
          <mxGeometry width="50" height="50" relative="1" as="geometry">
            <mxPoint x="120" y="26.180000000000064" as="sourcePoint" />
            <mxPoint x="117" y="30" as="targetPoint" />
          </mxGeometry>
        </mxCell>
        <mxCell id="IT3nphw8xW6kMLgiiqp9-53" value="adult" style="ellipse;whiteSpace=wrap;html=1;fontSize=8;fontStyle=1;verticalAlign=middle;container=0;" vertex="1" parent="IT3nphw8xW6kMLgiiqp9-556">
          <mxGeometry x="85" y="10" width="30" height="20" as="geometry" />
        </mxCell>
        <mxCell id="IT3nphw8xW6kMLgiiqp9-54" value="" style="endArrow=none;html=1;rounded=0;exitX=0.591;exitY=1.022;exitDx=0;exitDy=0;exitPerimeter=0;entryX=0.656;entryY=0.035;entryDx=0;entryDy=0;fontSize=8;fontStyle=1;entryPerimeter=0;verticalAlign=middle;" edge="1" parent="IT3nphw8xW6kMLgiiqp9-556" source="IT3nphw8xW6kMLgiiqp9-55" target="IT3nphw8xW6kMLgiiqp9-46">
          <mxGeometry width="50" height="50" relative="1" as="geometry">
            <mxPoint x="170" y="7.809999999999945" as="sourcePoint" />
            <mxPoint x="135" y="26" as="targetPoint" />
          </mxGeometry>
        </mxCell>
        <mxCell id="IT3nphw8xW6kMLgiiqp9-55" value="baby" style="ellipse;whiteSpace=wrap;html=1;fontSize=8;fontStyle=1;verticalAlign=middle;container=0;" vertex="1" parent="IT3nphw8xW6kMLgiiqp9-556">
          <mxGeometry x="115" width="35" height="20" as="geometry" />
        </mxCell>
        <mxCell id="IT3nphw8xW6kMLgiiqp9-56" value="floor" style="ellipse;whiteSpace=wrap;html=1;fontSize=8;fontStyle=1;verticalAlign=middle;container=0;" vertex="1" parent="IT3nphw8xW6kMLgiiqp9-556">
          <mxGeometry x="190" y="51.08000000000004" width="30" height="14" as="geometry" />
        </mxCell>
        <mxCell id="IT3nphw8xW6kMLgiiqp9-57" value="" style="endArrow=none;html=1;rounded=0;exitX=0.591;exitY=1.022;exitDx=0;exitDy=0;exitPerimeter=0;entryX=0.696;entryY=0.033;entryDx=0;entryDy=0;fontSize=8;fontStyle=1;entryPerimeter=0;verticalAlign=middle;" edge="1" parent="IT3nphw8xW6kMLgiiqp9-556" source="IT3nphw8xW6kMLgiiqp9-58" target="IT3nphw8xW6kMLgiiqp9-48">
          <mxGeometry width="50" height="50" relative="1" as="geometry">
            <mxPoint x="225" y="36.809999999999945" as="sourcePoint" />
            <mxPoint x="171" y="71" as="targetPoint" />
          </mxGeometry>
        </mxCell>
        <mxCell id="IT3nphw8xW6kMLgiiqp9-58" value="zone" style="ellipse;whiteSpace=wrap;html=1;fontSize=8;fontStyle=1;verticalAlign=middle;container=0;" vertex="1" parent="IT3nphw8xW6kMLgiiqp9-556">
          <mxGeometry x="170" y="29" width="35" height="20" as="geometry" />
        </mxCell>
        <mxCell id="IT3nphw8xW6kMLgiiqp9-59" value="" style="endArrow=none;html=1;rounded=0;exitX=0.5;exitY=1;exitDx=0;exitDy=0;entryX=1;entryY=0.5;entryDx=0;entryDy=0;fontSize=8;fontStyle=1;verticalAlign=middle;" edge="1" parent="IT3nphw8xW6kMLgiiqp9-556" source="IT3nphw8xW6kMLgiiqp9-56" target="IT3nphw8xW6kMLgiiqp9-48">
          <mxGeometry width="50" height="50" relative="1" as="geometry">
            <mxPoint x="201" y="59" as="sourcePoint" />
            <mxPoint x="175" y="76" as="targetPoint" />
          </mxGeometry>
        </mxCell>
        <mxCell id="IT3nphw8xW6kMLgiiqp9-40" value="activity" style="rounded=0;whiteSpace=wrap;html=1;fontSize=8;fontStyle=1;verticalAlign=middle;container=0;" vertex="1" parent="IT3nphw8xW6kMLgiiqp9-556">
          <mxGeometry x="30" y="73.69080430969677" width="80" height="26.309195690303184" as="geometry" />
        </mxCell>
        <mxCell id="IT3nphw8xW6kMLgiiqp9-41" value="" style="endArrow=none;html=1;rounded=0;exitX=0.114;exitY=0.004;exitDx=0;exitDy=0;exitPerimeter=0;entryX=0.477;entryY=1.082;entryDx=0;entryDy=0;entryPerimeter=0;fontSize=8;fontStyle=1;verticalAlign=middle;" edge="1" parent="IT3nphw8xW6kMLgiiqp9-556" source="IT3nphw8xW6kMLgiiqp9-40" target="IT3nphw8xW6kMLgiiqp9-42">
          <mxGeometry width="50" height="50" relative="1" as="geometry">
            <mxPoint x="40" y="64.9210724129291" as="sourcePoint" />
            <mxPoint x="30" y="47.38160861939366" as="targetPoint" />
          </mxGeometry>
        </mxCell>
        <mxCell id="IT3nphw8xW6kMLgiiqp9-42" value="&lt;font&gt;&lt;u&gt;activityid&lt;/u&gt;&lt;/font&gt;" style="ellipse;whiteSpace=wrap;html=1;fontSize=8;fontStyle=1;verticalAlign=middle;container=0;" vertex="1" parent="IT3nphw8xW6kMLgiiqp9-556">
          <mxGeometry y="47.53946379353545" width="60" height="17.539463793535457" as="geometry" />
        </mxCell>
        <mxCell id="IT3nphw8xW6kMLgiiqp9-43" value="" style="endArrow=none;html=1;rounded=0;exitX=0.5;exitY=0;exitDx=0;exitDy=0;entryX=0.477;entryY=1.082;entryDx=0;entryDy=0;entryPerimeter=0;fontSize=8;fontStyle=1;verticalAlign=middle;" edge="1" parent="IT3nphw8xW6kMLgiiqp9-556" source="IT3nphw8xW6kMLgiiqp9-40" target="IT3nphw8xW6kMLgiiqp9-44">
          <mxGeometry width="50" height="50" relative="1" as="geometry">
            <mxPoint x="90" y="73.69080430969677" as="sourcePoint" />
            <mxPoint x="80" y="47.38160861939366" as="targetPoint" />
          </mxGeometry>
        </mxCell>
        <mxCell id="IT3nphw8xW6kMLgiiqp9-44" value="name" style="ellipse;whiteSpace=wrap;html=1;fontSize=8;fontStyle=1;verticalAlign=middle;container=0;" vertex="1" parent="IT3nphw8xW6kMLgiiqp9-556">
          <mxGeometry x="50" y="30" width="40" height="17.539463793535457" as="geometry" />
        </mxCell>
        <mxCell id="IT3nphw8xW6kMLgiiqp9-45" value="" style="endArrow=none;html=1;rounded=0;entryX=0.323;entryY=0.914;entryDx=0;entryDy=0;entryPerimeter=0;fontSize=8;fontStyle=1;exitX=0.691;exitY=0.066;exitDx=0;exitDy=0;exitPerimeter=0;verticalAlign=middle;" edge="1" parent="IT3nphw8xW6kMLgiiqp9-556" source="IT3nphw8xW6kMLgiiqp9-40" target="IT3nphw8xW6kMLgiiqp9-46">
          <mxGeometry width="50" height="50" relative="1" as="geometry">
            <mxPoint x="90" y="70" as="sourcePoint" />
            <mxPoint x="150" y="56.15134051616138" as="targetPoint" />
          </mxGeometry>
        </mxCell>
        <mxCell id="IT3nphw8xW6kMLgiiqp9-46" value="type" style="ellipse;whiteSpace=wrap;html=1;fontSize=8;fontStyle=1;verticalAlign=middle;container=0;" vertex="1" parent="IT3nphw8xW6kMLgiiqp9-556">
          <mxGeometry x="90" y="41" width="40" height="17.54" as="geometry" />
        </mxCell>
        <mxCell id="IT3nphw8xW6kMLgiiqp9-47" value="" style="endArrow=none;html=1;rounded=0;exitX=1;exitY=0.5;exitDx=0;exitDy=0;fontSize=8;fontStyle=1;verticalAlign=middle;" edge="1" parent="IT3nphw8xW6kMLgiiqp9-556" source="IT3nphw8xW6kMLgiiqp9-40" target="IT3nphw8xW6kMLgiiqp9-48">
          <mxGeometry width="50" height="50" relative="1" as="geometry">
            <mxPoint x="120" y="86.84540215484856" as="sourcePoint" />
            <mxPoint x="160" y="82.4616086193937" as="targetPoint" />
          </mxGeometry>
        </mxCell>
        <mxCell id="IT3nphw8xW6kMLgiiqp9-48" value="location" style="ellipse;whiteSpace=wrap;html=1;fontSize=8;fontStyle=1;verticalAlign=middle;container=0;" vertex="1" parent="IT3nphw8xW6kMLgiiqp9-556">
          <mxGeometry x="130" y="50" width="50" height="30" as="geometry" />
        </mxCell>
        <mxCell id="IT3nphw8xW6kMLgiiqp9-49" value="mixed" style="ellipse;whiteSpace=wrap;html=1;fontSize=8;fontStyle=1;verticalAlign=middle;container=0;" vertex="1" parent="IT3nphw8xW6kMLgiiqp9-556">
          <mxGeometry x="130" y="27" width="30" height="14" as="geometry" />
        </mxCell>
        <mxCell id="IT3nphw8xW6kMLgiiqp9-50" value="" style="endArrow=none;html=1;rounded=0;entryX=1;entryY=0;entryDx=0;entryDy=0;exitX=0.372;exitY=0.99;exitDx=0;exitDy=0;exitPerimeter=0;fontSize=8;fontStyle=1;verticalAlign=middle;" edge="1" parent="IT3nphw8xW6kMLgiiqp9-556" source="IT3nphw8xW6kMLgiiqp9-49" target="IT3nphw8xW6kMLgiiqp9-46">
          <mxGeometry width="50" height="50" relative="1" as="geometry">
            <mxPoint x="170" y="16.180000000000064" as="sourcePoint" />
            <mxPoint x="153" y="30" as="targetPoint" />
          </mxGeometry>
        </mxCell>
        <mxCell id="IT3nphw8xW6kMLgiiqp9-557" value="" style="group" vertex="1" connectable="0" parent="1">
          <mxGeometry x="1080" y="-250" width="110" height="49" as="geometry" />
        </mxCell>
        <mxCell id="IT3nphw8xW6kMLgiiqp9-73" value="category" style="rounded=0;whiteSpace=wrap;html=1;fontSize=8;fontStyle=1;verticalAlign=middle;container=0;" vertex="1" parent="IT3nphw8xW6kMLgiiqp9-557">
          <mxGeometry x="30" y="32.690000000000055" width="50" height="16.31" as="geometry" />
        </mxCell>
        <mxCell id="IT3nphw8xW6kMLgiiqp9-74" value="&lt;font&gt;&lt;u&gt;catid&lt;/u&gt;&lt;/font&gt;" style="ellipse;whiteSpace=wrap;html=1;fontSize=8;fontStyle=1;verticalAlign=middle;container=0;" vertex="1" parent="IT3nphw8xW6kMLgiiqp9-557">
          <mxGeometry y="6.539463793535447" width="60" height="17.539463793535457" as="geometry" />
        </mxCell>
        <mxCell id="IT3nphw8xW6kMLgiiqp9-75" value="" style="endArrow=none;html=1;rounded=0;exitX=0.5;exitY=0;exitDx=0;exitDy=0;entryX=0.477;entryY=1.082;entryDx=0;entryDy=0;entryPerimeter=0;fontSize=8;fontStyle=1;verticalAlign=middle;" edge="1" parent="IT3nphw8xW6kMLgiiqp9-557" source="IT3nphw8xW6kMLgiiqp9-73" target="IT3nphw8xW6kMLgiiqp9-76">
          <mxGeometry width="50" height="50" relative="1" as="geometry">
            <mxPoint x="90" y="32.69080430969689" as="sourcePoint" />
            <mxPoint x="80" y="6.38160861939366" as="targetPoint" />
          </mxGeometry>
        </mxCell>
        <mxCell id="IT3nphw8xW6kMLgiiqp9-76" value="cat_name" style="ellipse;whiteSpace=wrap;html=1;fontSize=8;fontStyle=1;verticalAlign=middle;container=0;" vertex="1" parent="IT3nphw8xW6kMLgiiqp9-557">
          <mxGeometry x="70" width="40" height="17.539463793535457" as="geometry" />
        </mxCell>
        <mxCell id="IT3nphw8xW6kMLgiiqp9-77" value="" style="endArrow=none;html=1;rounded=0;exitX=0;exitY=0;exitDx=0;exitDy=0;entryX=0.5;entryY=1;entryDx=0;entryDy=0;verticalAlign=middle;" edge="1" parent="IT3nphw8xW6kMLgiiqp9-557" source="IT3nphw8xW6kMLgiiqp9-73" target="IT3nphw8xW6kMLgiiqp9-74">
          <mxGeometry width="50" height="50" relative="1" as="geometry">
            <mxPoint x="-30" y="71" as="sourcePoint" />
            <mxPoint x="20" y="21" as="targetPoint" />
          </mxGeometry>
        </mxCell>
        <mxCell id="IT3nphw8xW6kMLgiiqp9-558" value="" style="group" vertex="1" connectable="0" parent="1">
          <mxGeometry x="1030" y="20" width="210" height="80" as="geometry" />
        </mxCell>
        <mxCell id="IT3nphw8xW6kMLgiiqp9-247" value="start_time" style="ellipse;whiteSpace=wrap;html=1;fontSize=8;fontStyle=1;verticalAlign=middle;container=0;" vertex="1" parent="IT3nphw8xW6kMLgiiqp9-558">
          <mxGeometry x="50" width="80" height="30" as="geometry" />
        </mxCell>
        <mxCell id="IT3nphw8xW6kMLgiiqp9-248" value="end_time" style="ellipse;whiteSpace=wrap;html=1;fontSize=8;fontStyle=1;verticalAlign=middle;container=0;" vertex="1" parent="IT3nphw8xW6kMLgiiqp9-558">
          <mxGeometry x="130" y="10" width="80" height="30" as="geometry" />
        </mxCell>
        <mxCell id="IT3nphw8xW6kMLgiiqp9-249" value="" style="endArrow=none;html=1;rounded=0;exitX=0.5;exitY=0;exitDx=0;exitDy=0;entryX=0.477;entryY=1.082;entryDx=0;entryDy=0;entryPerimeter=0;fontSize=8;fontStyle=1;verticalAlign=middle;" edge="1" parent="IT3nphw8xW6kMLgiiqp9-558" source="IT3nphw8xW6kMLgiiqp9-243" target="IT3nphw8xW6kMLgiiqp9-247">
          <mxGeometry width="50" height="50" relative="1" as="geometry">
            <mxPoint x="90" y="52.69080430969677" as="sourcePoint" />
            <mxPoint x="80" y="26.38160861939366" as="targetPoint" />
          </mxGeometry>
        </mxCell>
        <mxCell id="IT3nphw8xW6kMLgiiqp9-250" value="" style="endArrow=none;html=1;rounded=0;exitX=1;exitY=0;exitDx=0;exitDy=0;entryX=0;entryY=0.5;entryDx=0;entryDy=0;fontSize=8;fontStyle=1;verticalAlign=middle;" edge="1" parent="IT3nphw8xW6kMLgiiqp9-558" source="IT3nphw8xW6kMLgiiqp9-243" target="IT3nphw8xW6kMLgiiqp9-248">
          <mxGeometry width="50" height="50" relative="1" as="geometry">
            <mxPoint x="60" y="63" as="sourcePoint" />
            <mxPoint x="98" y="42" as="targetPoint" />
          </mxGeometry>
        </mxCell>
        <mxCell id="IT3nphw8xW6kMLgiiqp9-241" value="&lt;font&gt;&lt;u&gt;shift_id&lt;/u&gt;&lt;/font&gt;" style="ellipse;whiteSpace=wrap;html=1;fontSize=8;fontStyle=1;verticalAlign=middle;container=0;" vertex="1" parent="IT3nphw8xW6kMLgiiqp9-558">
          <mxGeometry y="26.539463793535447" width="60" height="17.539463793535457" as="geometry" />
        </mxCell>
        <mxCell id="IT3nphw8xW6kMLgiiqp9-246" value="" style="endArrow=none;html=1;rounded=0;exitX=0.114;exitY=0.004;exitDx=0;exitDy=0;exitPerimeter=0;entryX=0.477;entryY=1.082;entryDx=0;entryDy=0;entryPerimeter=0;fontSize=8;fontStyle=1;verticalAlign=middle;" edge="1" parent="IT3nphw8xW6kMLgiiqp9-558" source="IT3nphw8xW6kMLgiiqp9-243" target="IT3nphw8xW6kMLgiiqp9-241">
          <mxGeometry width="50" height="50" relative="1" as="geometry">
            <mxPoint x="40" y="43.92107241292911" as="sourcePoint" />
            <mxPoint x="30" y="26.38160861939366" as="targetPoint" />
          </mxGeometry>
        </mxCell>
        <mxCell id="IT3nphw8xW6kMLgiiqp9-243" value="shift" style="rounded=0;whiteSpace=wrap;html=1;fontSize=8;fontStyle=1;verticalAlign=middle;container=0;" vertex="1" parent="IT3nphw8xW6kMLgiiqp9-558">
          <mxGeometry y="52.690000000000055" width="80" height="27.31" as="geometry" />
        </mxCell>
        <mxCell id="IT3nphw8xW6kMLgiiqp9-244" value="date" style="ellipse;whiteSpace=wrap;html=1;fontSize=8;fontStyle=1;verticalAlign=middle;container=0;" vertex="1" parent="IT3nphw8xW6kMLgiiqp9-558">
          <mxGeometry x="90" y="49" width="80" height="21" as="geometry" />
        </mxCell>
        <mxCell id="IT3nphw8xW6kMLgiiqp9-245" value="" style="endArrow=none;html=1;rounded=0;exitX=1;exitY=0.5;exitDx=0;exitDy=0;entryX=0;entryY=0.5;entryDx=0;entryDy=0;fontSize=8;fontStyle=1;verticalAlign=middle;" edge="1" parent="IT3nphw8xW6kMLgiiqp9-558" source="IT3nphw8xW6kMLgiiqp9-243" target="IT3nphw8xW6kMLgiiqp9-244">
          <mxGeometry width="50" height="50" relative="1" as="geometry">
            <mxPoint x="65" y="63" as="sourcePoint" />
            <mxPoint x="109" y="52" as="targetPoint" />
          </mxGeometry>
        </mxCell>
        <mxCell id="IT3nphw8xW6kMLgiiqp9-559" value="" style="group" vertex="1" connectable="0" parent="1">
          <mxGeometry x="1020" y="327" width="210" height="60" as="geometry" />
        </mxCell>
        <mxCell id="IT3nphw8xW6kMLgiiqp9-132" value="damage" style="ellipse;whiteSpace=wrap;html=1;fontSize=8;fontStyle=1;verticalAlign=middle;container=0;" vertex="1" parent="IT3nphw8xW6kMLgiiqp9-559">
          <mxGeometry x="170" width="40" height="17.539463793535457" as="geometry" />
        </mxCell>
        <mxCell id="IT3nphw8xW6kMLgiiqp9-133" value="" style="endArrow=none;html=1;rounded=0;exitX=1;exitY=0;exitDx=0;exitDy=0;entryX=0.263;entryY=0.852;entryDx=0;entryDy=0;fontSize=8;fontStyle=1;entryPerimeter=0;verticalAlign=middle;" edge="1" parent="IT3nphw8xW6kMLgiiqp9-559" source="IT3nphw8xW6kMLgiiqp9-128" target="IT3nphw8xW6kMLgiiqp9-132">
          <mxGeometry width="50" height="50" relative="1" as="geometry">
            <mxPoint x="90" y="54" as="sourcePoint" />
            <mxPoint x="120" y="47" as="targetPoint" />
          </mxGeometry>
        </mxCell>
        <mxCell id="IT3nphw8xW6kMLgiiqp9-123" value="fine" style="rounded=0;whiteSpace=wrap;html=1;fontSize=8;fontStyle=1;verticalAlign=middle;container=0;" vertex="1" parent="IT3nphw8xW6kMLgiiqp9-559">
          <mxGeometry x="30" y="43.690000000000055" width="50" height="16.31" as="geometry" />
        </mxCell>
        <mxCell id="IT3nphw8xW6kMLgiiqp9-124" value="" style="endArrow=none;html=1;rounded=0;exitX=0.114;exitY=0.004;exitDx=0;exitDy=0;exitPerimeter=0;entryX=0.477;entryY=1.082;entryDx=0;entryDy=0;entryPerimeter=0;fontSize=8;fontStyle=1;verticalAlign=middle;" edge="1" parent="IT3nphw8xW6kMLgiiqp9-559" source="IT3nphw8xW6kMLgiiqp9-123" target="IT3nphw8xW6kMLgiiqp9-125">
          <mxGeometry width="50" height="50" relative="1" as="geometry">
            <mxPoint x="40" y="34.92107241292911" as="sourcePoint" />
            <mxPoint x="30" y="17.38160861939366" as="targetPoint" />
          </mxGeometry>
        </mxCell>
        <mxCell id="IT3nphw8xW6kMLgiiqp9-125" value="&lt;font&gt;&lt;u&gt;fine_id&lt;/u&gt;&lt;/font&gt;" style="ellipse;whiteSpace=wrap;html=1;fontSize=8;fontStyle=1;verticalAlign=middle;container=0;" vertex="1" parent="IT3nphw8xW6kMLgiiqp9-559">
          <mxGeometry y="17.539463793535447" width="60" height="17.539463793535457" as="geometry" />
        </mxCell>
        <mxCell id="IT3nphw8xW6kMLgiiqp9-126" value="" style="endArrow=none;html=1;rounded=0;exitX=0.5;exitY=0;exitDx=0;exitDy=0;entryX=0.477;entryY=1.082;entryDx=0;entryDy=0;entryPerimeter=0;fontSize=8;fontStyle=1;verticalAlign=middle;" edge="1" parent="IT3nphw8xW6kMLgiiqp9-559" source="IT3nphw8xW6kMLgiiqp9-123" target="IT3nphw8xW6kMLgiiqp9-127">
          <mxGeometry width="50" height="50" relative="1" as="geometry">
            <mxPoint x="90" y="43.69080430969677" as="sourcePoint" />
            <mxPoint x="80" y="17.38160861939366" as="targetPoint" />
          </mxGeometry>
        </mxCell>
        <mxCell id="IT3nphw8xW6kMLgiiqp9-127" value="amount" style="ellipse;whiteSpace=wrap;html=1;fontSize=8;fontStyle=1;verticalAlign=middle;container=0;" vertex="1" parent="IT3nphw8xW6kMLgiiqp9-559">
          <mxGeometry x="70" y="11" width="40" height="17.539463793535457" as="geometry" />
        </mxCell>
        <mxCell id="IT3nphw8xW6kMLgiiqp9-128" value="type" style="ellipse;whiteSpace=wrap;html=1;fontSize=8;fontStyle=1;verticalAlign=middle;container=0;" vertex="1" parent="IT3nphw8xW6kMLgiiqp9-559">
          <mxGeometry x="110" y="28.539999999999964" width="60" height="17.54" as="geometry" />
        </mxCell>
        <mxCell id="IT3nphw8xW6kMLgiiqp9-129" value="" style="endArrow=none;html=1;rounded=0;exitX=1;exitY=0;exitDx=0;exitDy=0;entryX=0;entryY=0.5;entryDx=0;entryDy=0;fontSize=8;fontStyle=1;verticalAlign=middle;" edge="1" parent="IT3nphw8xW6kMLgiiqp9-559" source="IT3nphw8xW6kMLgiiqp9-123" target="IT3nphw8xW6kMLgiiqp9-128">
          <mxGeometry width="50" height="50" relative="1" as="geometry">
            <mxPoint x="65" y="54" as="sourcePoint" />
            <mxPoint x="99" y="40" as="targetPoint" />
          </mxGeometry>
        </mxCell>
        <mxCell id="IT3nphw8xW6kMLgiiqp9-130" value="overtime" style="ellipse;whiteSpace=wrap;html=1;fontSize=8;fontStyle=1;verticalAlign=middle;container=0;" vertex="1" parent="IT3nphw8xW6kMLgiiqp9-559">
          <mxGeometry x="120" width="40" height="17.539463793535457" as="geometry" />
        </mxCell>
        <mxCell id="IT3nphw8xW6kMLgiiqp9-131" value="" style="endArrow=none;html=1;rounded=0;exitX=0.5;exitY=0;exitDx=0;exitDy=0;entryX=0.5;entryY=1;entryDx=0;entryDy=0;fontSize=8;fontStyle=1;verticalAlign=middle;" edge="1" parent="IT3nphw8xW6kMLgiiqp9-559" source="IT3nphw8xW6kMLgiiqp9-128" target="IT3nphw8xW6kMLgiiqp9-130">
          <mxGeometry width="50" height="50" relative="1" as="geometry">
            <mxPoint x="162" y="41" as="sourcePoint" />
            <mxPoint x="191" y="25" as="targetPoint" />
          </mxGeometry>
        </mxCell>
        <mxCell id="IT3nphw8xW6kMLgiiqp9-560" value="" style="group" vertex="1" connectable="0" parent="1">
          <mxGeometry x="1060" y="-705" width="150" height="60" as="geometry" />
        </mxCell>
        <mxCell id="IT3nphw8xW6kMLgiiqp9-232" value="review" style="rounded=0;whiteSpace=wrap;html=1;fontSize=8;fontStyle=1;verticalAlign=middle;container=0;" vertex="1" parent="IT3nphw8xW6kMLgiiqp9-560">
          <mxGeometry x="30" y="32.690000000000055" width="50" height="27.31" as="geometry" />
        </mxCell>
        <mxCell id="IT3nphw8xW6kMLgiiqp9-233" value="" style="endArrow=none;html=1;rounded=0;exitX=0.114;exitY=0.004;exitDx=0;exitDy=0;exitPerimeter=0;entryX=0.477;entryY=1.082;entryDx=0;entryDy=0;entryPerimeter=0;fontSize=8;fontStyle=1;verticalAlign=middle;" edge="1" parent="IT3nphw8xW6kMLgiiqp9-560" source="IT3nphw8xW6kMLgiiqp9-232" target="IT3nphw8xW6kMLgiiqp9-234">
          <mxGeometry width="50" height="50" relative="1" as="geometry">
            <mxPoint x="40" y="23.921072412929107" as="sourcePoint" />
            <mxPoint x="30" y="6.38160861939366" as="targetPoint" />
          </mxGeometry>
        </mxCell>
        <mxCell id="IT3nphw8xW6kMLgiiqp9-234" value="&lt;font&gt;&lt;u&gt;review_id&lt;/u&gt;&lt;/font&gt;" style="ellipse;whiteSpace=wrap;html=1;fontSize=8;fontStyle=1;verticalAlign=middle;container=0;" vertex="1" parent="IT3nphw8xW6kMLgiiqp9-560">
          <mxGeometry y="6.539463793535447" width="60" height="17.539463793535457" as="geometry" />
        </mxCell>
        <mxCell id="IT3nphw8xW6kMLgiiqp9-235" value="" style="endArrow=none;html=1;rounded=0;exitX=0.5;exitY=0;exitDx=0;exitDy=0;entryX=0.477;entryY=1.082;entryDx=0;entryDy=0;entryPerimeter=0;fontSize=8;fontStyle=1;verticalAlign=middle;" edge="1" parent="IT3nphw8xW6kMLgiiqp9-560" source="IT3nphw8xW6kMLgiiqp9-232" target="IT3nphw8xW6kMLgiiqp9-236">
          <mxGeometry width="50" height="50" relative="1" as="geometry">
            <mxPoint x="90" y="32.69080430969677" as="sourcePoint" />
            <mxPoint x="80" y="6.38160861939366" as="targetPoint" />
          </mxGeometry>
        </mxCell>
        <mxCell id="IT3nphw8xW6kMLgiiqp9-236" value="rating" style="ellipse;whiteSpace=wrap;html=1;fontSize=8;fontStyle=1;verticalAlign=middle;container=0;" vertex="1" parent="IT3nphw8xW6kMLgiiqp9-560">
          <mxGeometry x="70" width="60" height="20" as="geometry" />
        </mxCell>
        <mxCell id="IT3nphw8xW6kMLgiiqp9-237" value="comment" style="ellipse;whiteSpace=wrap;html=1;fontSize=8;fontStyle=1;verticalAlign=middle;container=0;" vertex="1" parent="IT3nphw8xW6kMLgiiqp9-560">
          <mxGeometry x="90" y="29" width="60" height="20" as="geometry" />
        </mxCell>
        <mxCell id="IT3nphw8xW6kMLgiiqp9-238" value="" style="endArrow=none;html=1;rounded=0;exitX=1;exitY=0.5;exitDx=0;exitDy=0;entryX=0;entryY=0.5;entryDx=0;entryDy=0;fontSize=8;fontStyle=1;verticalAlign=middle;" edge="1" parent="IT3nphw8xW6kMLgiiqp9-560" source="IT3nphw8xW6kMLgiiqp9-232" target="IT3nphw8xW6kMLgiiqp9-237">
          <mxGeometry width="50" height="50" relative="1" as="geometry">
            <mxPoint x="65" y="43" as="sourcePoint" />
            <mxPoint x="109" y="32" as="targetPoint" />
          </mxGeometry>
        </mxCell>
        <mxCell id="IT3nphw8xW6kMLgiiqp9-561" value="" style="group" vertex="1" connectable="0" parent="1">
          <mxGeometry x="1030" y="-980" width="210" height="80" as="geometry" />
        </mxCell>
        <mxCell id="IT3nphw8xW6kMLgiiqp9-259" value="name" style="ellipse;whiteSpace=wrap;html=1;fontSize=8;fontStyle=1;verticalAlign=middle;container=0;" vertex="1" parent="IT3nphw8xW6kMLgiiqp9-561">
          <mxGeometry x="50" width="80" height="30" as="geometry" />
        </mxCell>
        <mxCell id="IT3nphw8xW6kMLgiiqp9-260" value="capacity" style="ellipse;whiteSpace=wrap;html=1;fontSize=8;fontStyle=1;verticalAlign=middle;container=0;" vertex="1" parent="IT3nphw8xW6kMLgiiqp9-561">
          <mxGeometry x="130" y="10" width="80" height="30" as="geometry" />
        </mxCell>
        <mxCell id="IT3nphw8xW6kMLgiiqp9-261" value="" style="endArrow=none;html=1;rounded=0;exitX=0.5;exitY=0;exitDx=0;exitDy=0;entryX=0.477;entryY=1.082;entryDx=0;entryDy=0;entryPerimeter=0;fontSize=8;fontStyle=1;verticalAlign=middle;" edge="1" parent="IT3nphw8xW6kMLgiiqp9-561" source="IT3nphw8xW6kMLgiiqp9-255" target="IT3nphw8xW6kMLgiiqp9-259">
          <mxGeometry width="50" height="50" relative="1" as="geometry">
            <mxPoint x="90" y="52.69080430969677" as="sourcePoint" />
            <mxPoint x="80" y="26.38160861939366" as="targetPoint" />
          </mxGeometry>
        </mxCell>
        <mxCell id="IT3nphw8xW6kMLgiiqp9-262" value="" style="endArrow=none;html=1;rounded=0;exitX=1;exitY=0;exitDx=0;exitDy=0;entryX=0;entryY=0.5;entryDx=0;entryDy=0;fontSize=8;fontStyle=1;verticalAlign=middle;" edge="1" parent="IT3nphw8xW6kMLgiiqp9-561" source="IT3nphw8xW6kMLgiiqp9-255" target="IT3nphw8xW6kMLgiiqp9-260">
          <mxGeometry width="50" height="50" relative="1" as="geometry">
            <mxPoint x="60" y="63" as="sourcePoint" />
            <mxPoint x="98" y="42" as="targetPoint" />
          </mxGeometry>
        </mxCell>
        <mxCell id="IT3nphw8xW6kMLgiiqp9-253" value="&lt;font&gt;&lt;u&gt;room_id&lt;/u&gt;&lt;/font&gt;" style="ellipse;whiteSpace=wrap;html=1;fontSize=8;fontStyle=1;verticalAlign=middle;container=0;" vertex="1" parent="IT3nphw8xW6kMLgiiqp9-561">
          <mxGeometry y="26.539463793535447" width="60" height="17.539463793535457" as="geometry" />
        </mxCell>
        <mxCell id="IT3nphw8xW6kMLgiiqp9-258" value="" style="endArrow=none;html=1;rounded=0;exitX=0.114;exitY=0.004;exitDx=0;exitDy=0;exitPerimeter=0;entryX=0.477;entryY=1.082;entryDx=0;entryDy=0;entryPerimeter=0;fontSize=8;fontStyle=1;verticalAlign=middle;" edge="1" parent="IT3nphw8xW6kMLgiiqp9-561" source="IT3nphw8xW6kMLgiiqp9-255" target="IT3nphw8xW6kMLgiiqp9-253">
          <mxGeometry width="50" height="50" relative="1" as="geometry">
            <mxPoint x="40" y="43.92107241292911" as="sourcePoint" />
            <mxPoint x="30" y="26.38160861939366" as="targetPoint" />
          </mxGeometry>
        </mxCell>
        <mxCell id="IT3nphw8xW6kMLgiiqp9-255" value="room" style="rounded=0;whiteSpace=wrap;html=1;fontSize=8;fontStyle=1;verticalAlign=middle;container=0;" vertex="1" parent="IT3nphw8xW6kMLgiiqp9-561">
          <mxGeometry y="52.690000000000055" width="80" height="27.31" as="geometry" />
        </mxCell>
        <mxCell id="IT3nphw8xW6kMLgiiqp9-256" value="rate" style="ellipse;whiteSpace=wrap;html=1;fontSize=8;fontStyle=1;verticalAlign=middle;container=0;" vertex="1" parent="IT3nphw8xW6kMLgiiqp9-561">
          <mxGeometry x="90" y="49" width="80" height="21" as="geometry" />
        </mxCell>
        <mxCell id="IT3nphw8xW6kMLgiiqp9-257" value="" style="endArrow=none;html=1;rounded=0;exitX=1;exitY=0.5;exitDx=0;exitDy=0;entryX=0;entryY=0.5;entryDx=0;entryDy=0;fontSize=8;fontStyle=1;verticalAlign=middle;" edge="1" parent="IT3nphw8xW6kMLgiiqp9-561" source="IT3nphw8xW6kMLgiiqp9-255" target="IT3nphw8xW6kMLgiiqp9-256">
          <mxGeometry width="50" height="50" relative="1" as="geometry">
            <mxPoint x="65" y="63" as="sourcePoint" />
            <mxPoint x="109" y="52" as="targetPoint" />
          </mxGeometry>
        </mxCell>
        <mxCell id="IT3nphw8xW6kMLgiiqp9-562" value="" style="group" vertex="1" connectable="0" parent="1">
          <mxGeometry x="120" y="-970" width="150" height="49" as="geometry" />
        </mxCell>
        <mxCell id="IT3nphw8xW6kMLgiiqp9-222" value="waitlist" style="rounded=0;whiteSpace=wrap;html=1;fontSize=8;fontStyle=1;verticalAlign=middle;container=0;" vertex="1" parent="IT3nphw8xW6kMLgiiqp9-562">
          <mxGeometry x="30" y="32.690000000000055" width="50" height="16.31" as="geometry" />
        </mxCell>
        <mxCell id="IT3nphw8xW6kMLgiiqp9-223" value="" style="endArrow=none;html=1;rounded=0;exitX=0.114;exitY=0.004;exitDx=0;exitDy=0;exitPerimeter=0;entryX=0.477;entryY=1.082;entryDx=0;entryDy=0;entryPerimeter=0;fontSize=8;fontStyle=1;verticalAlign=middle;" edge="1" parent="IT3nphw8xW6kMLgiiqp9-562" source="IT3nphw8xW6kMLgiiqp9-222" target="IT3nphw8xW6kMLgiiqp9-224">
          <mxGeometry width="50" height="50" relative="1" as="geometry">
            <mxPoint x="40" y="23.921072412929107" as="sourcePoint" />
            <mxPoint x="30" y="6.38160861939366" as="targetPoint" />
          </mxGeometry>
        </mxCell>
        <mxCell id="IT3nphw8xW6kMLgiiqp9-224" value="&lt;font&gt;&lt;u&gt;waitlist_id&lt;/u&gt;&lt;/font&gt;" style="ellipse;whiteSpace=wrap;html=1;fontSize=8;fontStyle=1;verticalAlign=middle;container=0;" vertex="1" parent="IT3nphw8xW6kMLgiiqp9-562">
          <mxGeometry y="6.539463793535447" width="60" height="17.539463793535457" as="geometry" />
        </mxCell>
        <mxCell id="IT3nphw8xW6kMLgiiqp9-225" value="" style="endArrow=none;html=1;rounded=0;exitX=0.5;exitY=0;exitDx=0;exitDy=0;entryX=0.477;entryY=1.082;entryDx=0;entryDy=0;entryPerimeter=0;fontSize=8;fontStyle=1;verticalAlign=middle;" edge="1" parent="IT3nphw8xW6kMLgiiqp9-562" source="IT3nphw8xW6kMLgiiqp9-222" target="IT3nphw8xW6kMLgiiqp9-226">
          <mxGeometry width="50" height="50" relative="1" as="geometry">
            <mxPoint x="90" y="32.69080430969677" as="sourcePoint" />
            <mxPoint x="80" y="6.38160861939366" as="targetPoint" />
          </mxGeometry>
        </mxCell>
        <mxCell id="IT3nphw8xW6kMLgiiqp9-226" value="requestdate" style="ellipse;whiteSpace=wrap;html=1;fontSize=8;fontStyle=1;verticalAlign=middle;container=0;" vertex="1" parent="IT3nphw8xW6kMLgiiqp9-562">
          <mxGeometry x="70" width="60" height="20" as="geometry" />
        </mxCell>
        <mxCell id="IT3nphw8xW6kMLgiiqp9-227" value="priority" style="ellipse;whiteSpace=wrap;html=1;fontSize=8;fontStyle=1;verticalAlign=middle;container=0;" vertex="1" parent="IT3nphw8xW6kMLgiiqp9-562">
          <mxGeometry x="90" y="29" width="60" height="20" as="geometry" />
        </mxCell>
        <mxCell id="IT3nphw8xW6kMLgiiqp9-228" value="" style="endArrow=none;html=1;rounded=0;exitX=1;exitY=0.5;exitDx=0;exitDy=0;entryX=0;entryY=0.5;entryDx=0;entryDy=0;fontSize=8;fontStyle=1;verticalAlign=middle;" edge="1" parent="IT3nphw8xW6kMLgiiqp9-562" source="IT3nphw8xW6kMLgiiqp9-222" target="IT3nphw8xW6kMLgiiqp9-227">
          <mxGeometry width="50" height="50" relative="1" as="geometry">
            <mxPoint x="65" y="43" as="sourcePoint" />
            <mxPoint x="109" y="32" as="targetPoint" />
          </mxGeometry>
        </mxCell>
        <mxCell id="IT3nphw8xW6kMLgiiqp9-563" value="" style="group" vertex="1" connectable="0" parent="1">
          <mxGeometry x="140" y="700" width="270" height="70" as="geometry" />
        </mxCell>
        <mxCell id="IT3nphw8xW6kMLgiiqp9-379" value="validuntil&lt;span style=&quot;caret-color: rgba(0, 0, 0, 0); color: rgba(0, 0, 0, 0); font-family: monospace; font-size: 0px; font-weight: 400; text-align: start; white-space: nowrap;&quot;&gt;%3CmxGraphModel%3E%3Croot%3E%3CmxCell%20id%3D%220%22%2F%3E%3CmxCell%20id%3D%221%22%20parent%3D%220%22%2F%3E%3CmxCell%20id%3D%222%22%20value%3D%22%22%20style%3D%22endArrow%3Dnone%3Bhtml%3D1%3Brounded%3D0%3BexitX%3D1%3BexitY%3D0.5%3BexitDx%3D0%3BexitDy%3D0%3BfontSize%3D8%3BfontStyle%3D1%22%20edge%3D%221%22%20parent%3D%221%22%3E%3CmxGeometry%20width%3D%2250%22%20height%3D%2250%22%20relative%3D%221%22%20as%3D%22geometry%22%3E%3CmxPoint%20x%3D%22530%22%20y%3D%221077%22%20as%3D%22sourcePoint%22%2F%3E%3CmxPoint%20x%3D%22550%22%20y%3D%221077%22%20as%3D%22targetPoint%22%2F%3E%3C%2FmxGeometry%3E%3C%2FmxCell%3E%3C%2Froot%3E%3C%2FmxGraphModel%3E&lt;/span&gt;" style="ellipse;whiteSpace=wrap;html=1;fontSize=8;fontStyle=1;verticalAlign=middle;container=0;" vertex="1" parent="IT3nphw8xW6kMLgiiqp9-563">
          <mxGeometry y="33.690000000000055" width="50" height="26.31" as="geometry" />
        </mxCell>
        <mxCell id="IT3nphw8xW6kMLgiiqp9-380" value="max_usese" style="ellipse;whiteSpace=wrap;html=1;fontSize=8;fontStyle=1;verticalAlign=middle;container=0;" vertex="1" parent="IT3nphw8xW6kMLgiiqp9-563">
          <mxGeometry x="220" y="20" width="50" height="26.31" as="geometry" />
        </mxCell>
        <mxCell id="IT3nphw8xW6kMLgiiqp9-381" value="" style="endArrow=none;html=1;rounded=0;exitX=0;exitY=0.5;exitDx=0;exitDy=0;fontSize=8;fontStyle=1;entryX=1;entryY=0.5;entryDx=0;entryDy=0;verticalAlign=middle;" edge="1" parent="IT3nphw8xW6kMLgiiqp9-563" source="IT3nphw8xW6kMLgiiqp9-370" target="IT3nphw8xW6kMLgiiqp9-379">
          <mxGeometry width="50" height="50" relative="1" as="geometry">
            <mxPoint x="170" y="67" as="sourcePoint" />
            <mxPoint x="190" y="67" as="targetPoint" />
          </mxGeometry>
        </mxCell>
        <mxCell id="IT3nphw8xW6kMLgiiqp9-382" value="" style="endArrow=none;html=1;rounded=0;fontSize=8;fontStyle=1;entryX=0;entryY=0.5;entryDx=0;entryDy=0;exitX=1;exitY=0;exitDx=0;exitDy=0;verticalAlign=middle;" edge="1" parent="IT3nphw8xW6kMLgiiqp9-563" source="IT3nphw8xW6kMLgiiqp9-370" target="IT3nphw8xW6kMLgiiqp9-380">
          <mxGeometry width="50" height="50" relative="1" as="geometry">
            <mxPoint x="200" y="40" as="sourcePoint" />
            <mxPoint x="230" y="57" as="targetPoint" />
          </mxGeometry>
        </mxCell>
        <mxCell id="IT3nphw8xW6kMLgiiqp9-370" value="cupon" style="rounded=0;whiteSpace=wrap;html=1;fontSize=8;fontStyle=1;verticalAlign=middle;container=0;" vertex="1" parent="IT3nphw8xW6kMLgiiqp9-563">
          <mxGeometry x="80" y="43.69080430969677" width="80" height="26.309195690303184" as="geometry" />
        </mxCell>
        <mxCell id="IT3nphw8xW6kMLgiiqp9-371" value="" style="endArrow=none;html=1;rounded=0;exitX=0.114;exitY=0.004;exitDx=0;exitDy=0;exitPerimeter=0;entryX=0.477;entryY=1.082;entryDx=0;entryDy=0;entryPerimeter=0;fontSize=8;fontStyle=1;verticalAlign=middle;" edge="1" parent="IT3nphw8xW6kMLgiiqp9-563" source="IT3nphw8xW6kMLgiiqp9-370" target="IT3nphw8xW6kMLgiiqp9-372">
          <mxGeometry width="50" height="50" relative="1" as="geometry">
            <mxPoint x="90" y="34.92107241292911" as="sourcePoint" />
            <mxPoint x="80" y="17.38160861939366" as="targetPoint" />
          </mxGeometry>
        </mxCell>
        <mxCell id="IT3nphw8xW6kMLgiiqp9-372" value="&lt;font&gt;&lt;u&gt;cuponid&lt;/u&gt;&lt;/font&gt;" style="ellipse;whiteSpace=wrap;html=1;fontSize=8;fontStyle=1;verticalAlign=middle;container=0;" vertex="1" parent="IT3nphw8xW6kMLgiiqp9-563">
          <mxGeometry x="50" y="17.539463793535447" width="60" height="17.539463793535457" as="geometry" />
        </mxCell>
        <mxCell id="IT3nphw8xW6kMLgiiqp9-373" value="" style="endArrow=none;html=1;rounded=0;exitX=0.5;exitY=0;exitDx=0;exitDy=0;entryX=0.477;entryY=1.082;entryDx=0;entryDy=0;entryPerimeter=0;fontSize=8;fontStyle=1;verticalAlign=middle;" edge="1" parent="IT3nphw8xW6kMLgiiqp9-563" source="IT3nphw8xW6kMLgiiqp9-370" target="IT3nphw8xW6kMLgiiqp9-374">
          <mxGeometry width="50" height="50" relative="1" as="geometry">
            <mxPoint x="140" y="43.69080430969677" as="sourcePoint" />
            <mxPoint x="130" y="17.38160861939366" as="targetPoint" />
          </mxGeometry>
        </mxCell>
        <mxCell id="IT3nphw8xW6kMLgiiqp9-374" value="code" style="ellipse;whiteSpace=wrap;html=1;fontSize=8;fontStyle=1;verticalAlign=middle;container=0;" vertex="1" parent="IT3nphw8xW6kMLgiiqp9-563">
          <mxGeometry x="100" width="40" height="17.539463793535457" as="geometry" />
        </mxCell>
        <mxCell id="IT3nphw8xW6kMLgiiqp9-375" value="" style="endArrow=none;html=1;rounded=0;entryX=0.323;entryY=0.914;entryDx=0;entryDy=0;entryPerimeter=0;fontSize=8;fontStyle=1;exitX=0.893;exitY=-0.073;exitDx=0;exitDy=0;exitPerimeter=0;verticalAlign=middle;" edge="1" parent="IT3nphw8xW6kMLgiiqp9-563" source="IT3nphw8xW6kMLgiiqp9-370" target="IT3nphw8xW6kMLgiiqp9-376">
          <mxGeometry width="50" height="50" relative="1" as="geometry">
            <mxPoint x="190" y="43.69080430969677" as="sourcePoint" />
            <mxPoint x="200" y="26.151340516161326" as="targetPoint" />
          </mxGeometry>
        </mxCell>
        <mxCell id="IT3nphw8xW6kMLgiiqp9-376" value="discopunt_type" style="ellipse;whiteSpace=wrap;html=1;fontSize=8;fontStyle=1;verticalAlign=middle;container=0;" vertex="1" parent="IT3nphw8xW6kMLgiiqp9-563">
          <mxGeometry x="140" y="17.539999999999964" width="70" height="17.54" as="geometry" />
        </mxCell>
        <mxCell id="IT3nphw8xW6kMLgiiqp9-377" value="" style="endArrow=none;html=1;rounded=0;exitX=1;exitY=0.5;exitDx=0;exitDy=0;fontSize=8;fontStyle=1;verticalAlign=middle;" edge="1" parent="IT3nphw8xW6kMLgiiqp9-563" source="IT3nphw8xW6kMLgiiqp9-370" target="IT3nphw8xW6kMLgiiqp9-378">
          <mxGeometry width="50" height="50" relative="1" as="geometry">
            <mxPoint x="170" y="56.84540215484856" as="sourcePoint" />
            <mxPoint x="210" y="52.4616086193937" as="targetPoint" />
          </mxGeometry>
        </mxCell>
        <mxCell id="IT3nphw8xW6kMLgiiqp9-378" value="validfrom" style="ellipse;whiteSpace=wrap;html=1;fontSize=8;fontStyle=1;verticalAlign=middle;container=0;" vertex="1" parent="IT3nphw8xW6kMLgiiqp9-563">
          <mxGeometry x="180" y="43.690000000000055" width="50" height="26.31" as="geometry" />
        </mxCell>
        <mxCell id="IT3nphw8xW6kMLgiiqp9-564" value="" style="group" vertex="1" connectable="0" parent="1">
          <mxGeometry x="1070" y="646.1" width="265" height="83.85" as="geometry" />
        </mxCell>
        <mxCell id="IT3nphw8xW6kMLgiiqp9-111" value="mobile" style="ellipse;whiteSpace=wrap;html=1;fontSize=8;fontStyle=1;verticalAlign=middle;container=0;" vertex="1" parent="IT3nphw8xW6kMLgiiqp9-564">
          <mxGeometry x="170" y="7.539999999999964" width="40" height="17.539463793535457" as="geometry" />
        </mxCell>
        <mxCell id="IT3nphw8xW6kMLgiiqp9-112" value="" style="endArrow=none;html=1;rounded=0;exitX=1;exitY=0;exitDx=0;exitDy=0;entryX=0.263;entryY=0.852;entryDx=0;entryDy=0;fontSize=8;fontStyle=1;entryPerimeter=0;verticalAlign=middle;" edge="1" parent="IT3nphw8xW6kMLgiiqp9-564" source="IT3nphw8xW6kMLgiiqp9-104" target="IT3nphw8xW6kMLgiiqp9-111">
          <mxGeometry width="50" height="50" relative="1" as="geometry">
            <mxPoint x="90" y="61.539999999999964" as="sourcePoint" />
            <mxPoint x="120" y="54.539999999999964" as="targetPoint" />
          </mxGeometry>
        </mxCell>
        <mxCell id="IT3nphw8xW6kMLgiiqp9-113" value="status" style="ellipse;whiteSpace=wrap;html=1;fontSize=8;fontStyle=1;verticalAlign=middle;container=0;" vertex="1" parent="IT3nphw8xW6kMLgiiqp9-564">
          <mxGeometry x="155" y="57.539999999999964" width="60" height="17.54" as="geometry" />
        </mxCell>
        <mxCell id="IT3nphw8xW6kMLgiiqp9-114" value="refund" style="ellipse;whiteSpace=wrap;html=1;fontSize=8;fontStyle=1;verticalAlign=middle;container=0;" vertex="1" parent="IT3nphw8xW6kMLgiiqp9-564">
          <mxGeometry x="225" y="40" width="40" height="17.539463793535457" as="geometry" />
        </mxCell>
        <mxCell id="IT3nphw8xW6kMLgiiqp9-115" value="paid" style="ellipse;whiteSpace=wrap;html=1;fontSize=8;fontStyle=1;verticalAlign=middle;container=0;" vertex="1" parent="IT3nphw8xW6kMLgiiqp9-564">
          <mxGeometry x="185" y="30" width="40" height="17.539463793535457" as="geometry" />
        </mxCell>
        <mxCell id="IT3nphw8xW6kMLgiiqp9-116" value="" style="endArrow=none;html=1;rounded=0;exitX=0.328;exitY=0.995;exitDx=0;exitDy=0;entryX=0.649;entryY=-0.005;entryDx=0;entryDy=0;fontSize=8;fontStyle=1;exitPerimeter=0;entryPerimeter=0;verticalAlign=middle;" edge="1" parent="IT3nphw8xW6kMLgiiqp9-564" source="IT3nphw8xW6kMLgiiqp9-115" target="IT3nphw8xW6kMLgiiqp9-113">
          <mxGeometry width="50" height="50" relative="1" as="geometry">
            <mxPoint x="160" y="35.539999999999964" as="sourcePoint" />
            <mxPoint x="140" y="25.539999999999964" as="targetPoint" />
          </mxGeometry>
        </mxCell>
        <mxCell id="IT3nphw8xW6kMLgiiqp9-117" value="" style="endArrow=none;html=1;rounded=0;exitX=0;exitY=1;exitDx=0;exitDy=0;entryX=1;entryY=0;entryDx=0;entryDy=0;fontSize=8;fontStyle=1;verticalAlign=middle;" edge="1" parent="IT3nphw8xW6kMLgiiqp9-564" source="IT3nphw8xW6kMLgiiqp9-114" target="IT3nphw8xW6kMLgiiqp9-113">
          <mxGeometry width="50" height="50" relative="1" as="geometry">
            <mxPoint x="208" y="57.539999999999964" as="sourcePoint" />
            <mxPoint x="204" y="67.53999999999996" as="targetPoint" />
          </mxGeometry>
        </mxCell>
        <mxCell id="IT3nphw8xW6kMLgiiqp9-118" value="" style="endArrow=none;html=1;rounded=0;exitX=1;exitY=0.5;exitDx=0;exitDy=0;fontSize=8;fontStyle=1;entryX=0.031;entryY=0.352;entryDx=0;entryDy=0;entryPerimeter=0;verticalAlign=middle;" edge="1" parent="IT3nphw8xW6kMLgiiqp9-564" source="IT3nphw8xW6kMLgiiqp9-107" target="IT3nphw8xW6kMLgiiqp9-113">
          <mxGeometry width="50" height="50" relative="1" as="geometry">
            <mxPoint x="127" y="61.539999999999964" as="sourcePoint" />
            <mxPoint x="160" y="67.53999999999996" as="targetPoint" />
          </mxGeometry>
        </mxCell>
        <mxCell id="IT3nphw8xW6kMLgiiqp9-574" value="" style="edgeStyle=orthogonalEdgeStyle;rounded=0;orthogonalLoop=1;jettySize=auto;html=1;" edge="1" parent="IT3nphw8xW6kMLgiiqp9-564" source="IT3nphw8xW6kMLgiiqp9-107" target="IT3nphw8xW6kMLgiiqp9-103">
          <mxGeometry relative="1" as="geometry" />
        </mxCell>
        <mxCell id="IT3nphw8xW6kMLgiiqp9-107" value="payment" style="rounded=0;whiteSpace=wrap;html=1;fontSize=8;fontStyle=1;verticalAlign=middle;container=0;" vertex="1" parent="IT3nphw8xW6kMLgiiqp9-564">
          <mxGeometry x="30" y="70" width="90" height="13.85" as="geometry" />
        </mxCell>
        <mxCell id="IT3nphw8xW6kMLgiiqp9-108" value="" style="endArrow=none;html=1;rounded=0;exitX=0.114;exitY=0.004;exitDx=0;exitDy=0;exitPerimeter=0;entryX=0.477;entryY=1.082;entryDx=0;entryDy=0;entryPerimeter=0;fontSize=8;fontStyle=1;verticalAlign=middle;" edge="1" parent="IT3nphw8xW6kMLgiiqp9-564" source="IT3nphw8xW6kMLgiiqp9-107" target="IT3nphw8xW6kMLgiiqp9-102">
          <mxGeometry width="50" height="50" relative="1" as="geometry">
            <mxPoint x="60" y="42.46107241292907" as="sourcePoint" />
            <mxPoint x="50" y="24.921608619393623" as="targetPoint" />
          </mxGeometry>
        </mxCell>
        <mxCell id="IT3nphw8xW6kMLgiiqp9-109" value="" style="endArrow=none;html=1;rounded=0;exitX=0.5;exitY=0;exitDx=0;exitDy=0;entryX=0.477;entryY=1.082;entryDx=0;entryDy=0;entryPerimeter=0;fontSize=8;fontStyle=1;verticalAlign=middle;" edge="1" parent="IT3nphw8xW6kMLgiiqp9-564" source="IT3nphw8xW6kMLgiiqp9-107" target="IT3nphw8xW6kMLgiiqp9-103">
          <mxGeometry width="50" height="50" relative="1" as="geometry">
            <mxPoint x="110" y="51.23080430969674" as="sourcePoint" />
            <mxPoint x="100" y="24.921608619393623" as="targetPoint" />
          </mxGeometry>
        </mxCell>
        <mxCell id="IT3nphw8xW6kMLgiiqp9-110" value="" style="endArrow=none;html=1;rounded=0;exitX=0.75;exitY=0;exitDx=0;exitDy=0;entryX=0.386;entryY=0.995;entryDx=0;entryDy=0;fontSize=8;fontStyle=1;entryPerimeter=0;verticalAlign=middle;" edge="1" parent="IT3nphw8xW6kMLgiiqp9-564" source="IT3nphw8xW6kMLgiiqp9-107" target="IT3nphw8xW6kMLgiiqp9-104">
          <mxGeometry width="50" height="50" relative="1" as="geometry">
            <mxPoint x="85" y="61.539999999999964" as="sourcePoint" />
            <mxPoint x="119" y="47.539999999999964" as="targetPoint" />
          </mxGeometry>
        </mxCell>
        <mxCell id="IT3nphw8xW6kMLgiiqp9-105" value="card" style="ellipse;whiteSpace=wrap;html=1;fontSize=8;fontStyle=1;verticalAlign=middle;container=0;" vertex="1" parent="IT3nphw8xW6kMLgiiqp9-564">
          <mxGeometry x="130" width="40" height="17.539463793535457" as="geometry" />
        </mxCell>
        <mxCell id="IT3nphw8xW6kMLgiiqp9-106" value="" style="endArrow=none;html=1;rounded=0;exitX=0.5;exitY=0;exitDx=0;exitDy=0;entryX=0.5;entryY=1;entryDx=0;entryDy=0;fontSize=8;fontStyle=1;verticalAlign=middle;" edge="1" parent="IT3nphw8xW6kMLgiiqp9-564" source="IT3nphw8xW6kMLgiiqp9-104" target="IT3nphw8xW6kMLgiiqp9-105">
          <mxGeometry width="50" height="50" relative="1" as="geometry">
            <mxPoint x="142" y="78.53999999999996" as="sourcePoint" />
            <mxPoint x="171" y="62.539999999999964" as="targetPoint" />
          </mxGeometry>
        </mxCell>
        <mxCell id="IT3nphw8xW6kMLgiiqp9-102" value="&lt;font&gt;&lt;u&gt;payment_id&lt;/u&gt;&lt;/font&gt;" style="ellipse;whiteSpace=wrap;html=1;fontSize=8;fontStyle=1;verticalAlign=middle;container=0;" vertex="1" parent="IT3nphw8xW6kMLgiiqp9-564">
          <mxGeometry y="25.07946379353541" width="60" height="17.539463793535457" as="geometry" />
        </mxCell>
        <mxCell id="IT3nphw8xW6kMLgiiqp9-103" value="amount" style="ellipse;whiteSpace=wrap;html=1;fontSize=8;fontStyle=1;verticalAlign=middle;container=0;" vertex="1" parent="IT3nphw8xW6kMLgiiqp9-564">
          <mxGeometry x="70" y="18.539999999999964" width="40" height="17.539463793535457" as="geometry" />
        </mxCell>
        <mxCell id="IT3nphw8xW6kMLgiiqp9-104" value="method" style="ellipse;whiteSpace=wrap;html=1;fontSize=8;fontStyle=1;verticalAlign=middle;container=0;" vertex="1" parent="IT3nphw8xW6kMLgiiqp9-564">
          <mxGeometry x="120" y="25.079999999999927" width="60" height="17.54" as="geometry" />
        </mxCell>
        <mxCell id="IT3nphw8xW6kMLgiiqp9-565" value="" style="group" vertex="1" connectable="0" parent="1">
          <mxGeometry x="1140" y="949.5799999999999" width="210" height="80" as="geometry" />
        </mxCell>
        <mxCell id="IT3nphw8xW6kMLgiiqp9-342" value="checkouttime" style="ellipse;whiteSpace=wrap;html=1;fontSize=8;fontStyle=1;verticalAlign=middle;container=0;" vertex="1" parent="IT3nphw8xW6kMLgiiqp9-565">
          <mxGeometry x="50" width="80" height="30" as="geometry" />
        </mxCell>
        <mxCell id="IT3nphw8xW6kMLgiiqp9-343" value="checkin_time" style="ellipse;whiteSpace=wrap;html=1;fontSize=8;fontStyle=1;verticalAlign=middle;container=0;" vertex="1" parent="IT3nphw8xW6kMLgiiqp9-565">
          <mxGeometry x="130" y="10" width="80" height="30" as="geometry" />
        </mxCell>
        <mxCell id="IT3nphw8xW6kMLgiiqp9-344" value="" style="endArrow=none;html=1;rounded=0;exitX=0.5;exitY=0;exitDx=0;exitDy=0;entryX=0.477;entryY=1.082;entryDx=0;entryDy=0;entryPerimeter=0;fontSize=8;fontStyle=1;verticalAlign=middle;" edge="1" parent="IT3nphw8xW6kMLgiiqp9-565" source="IT3nphw8xW6kMLgiiqp9-338" target="IT3nphw8xW6kMLgiiqp9-342">
          <mxGeometry width="50" height="50" relative="1" as="geometry">
            <mxPoint x="90" y="52.69080430969689" as="sourcePoint" />
            <mxPoint x="80" y="26.38160861939366" as="targetPoint" />
          </mxGeometry>
        </mxCell>
        <mxCell id="IT3nphw8xW6kMLgiiqp9-345" value="" style="endArrow=none;html=1;rounded=0;exitX=1;exitY=0;exitDx=0;exitDy=0;entryX=0;entryY=0.5;entryDx=0;entryDy=0;fontSize=8;fontStyle=1;verticalAlign=middle;" edge="1" parent="IT3nphw8xW6kMLgiiqp9-565" source="IT3nphw8xW6kMLgiiqp9-338" target="IT3nphw8xW6kMLgiiqp9-343">
          <mxGeometry width="50" height="50" relative="1" as="geometry">
            <mxPoint x="60" y="63" as="sourcePoint" />
            <mxPoint x="98" y="42" as="targetPoint" />
          </mxGeometry>
        </mxCell>
        <mxCell id="IT3nphw8xW6kMLgiiqp9-336" value="&lt;font&gt;&lt;u&gt;usage_id&lt;/u&gt;&lt;/font&gt;" style="ellipse;whiteSpace=wrap;html=1;fontSize=8;fontStyle=1;verticalAlign=middle;container=0;" vertex="1" parent="IT3nphw8xW6kMLgiiqp9-565">
          <mxGeometry y="26.539463793535447" width="60" height="17.539463793535457" as="geometry" />
        </mxCell>
        <mxCell id="IT3nphw8xW6kMLgiiqp9-341" value="" style="endArrow=none;html=1;rounded=0;exitX=0.114;exitY=0.004;exitDx=0;exitDy=0;exitPerimeter=0;entryX=0.477;entryY=1.082;entryDx=0;entryDy=0;entryPerimeter=0;fontSize=8;fontStyle=1;verticalAlign=middle;" edge="1" parent="IT3nphw8xW6kMLgiiqp9-565" source="IT3nphw8xW6kMLgiiqp9-338" target="IT3nphw8xW6kMLgiiqp9-336">
          <mxGeometry width="50" height="50" relative="1" as="geometry">
            <mxPoint x="40" y="43.92107241292911" as="sourcePoint" />
            <mxPoint x="30" y="26.38160861939366" as="targetPoint" />
          </mxGeometry>
        </mxCell>
        <mxCell id="IT3nphw8xW6kMLgiiqp9-338" value="equipment_usage" style="rounded=0;whiteSpace=wrap;html=1;fontSize=8;fontStyle=1;verticalAlign=middle;container=0;" vertex="1" parent="IT3nphw8xW6kMLgiiqp9-565">
          <mxGeometry y="52.690000000000055" width="80" height="27.31" as="geometry" />
        </mxCell>
        <mxCell id="IT3nphw8xW6kMLgiiqp9-339" value="condition_note" style="ellipse;whiteSpace=wrap;html=1;fontSize=8;fontStyle=1;verticalAlign=middle;container=0;" vertex="1" parent="IT3nphw8xW6kMLgiiqp9-565">
          <mxGeometry x="90" y="49" width="80" height="21" as="geometry" />
        </mxCell>
        <mxCell id="IT3nphw8xW6kMLgiiqp9-340" value="" style="endArrow=none;html=1;rounded=0;exitX=1;exitY=0.5;exitDx=0;exitDy=0;entryX=0;entryY=0.5;entryDx=0;entryDy=0;fontSize=8;fontStyle=1;verticalAlign=middle;" edge="1" parent="IT3nphw8xW6kMLgiiqp9-565" source="IT3nphw8xW6kMLgiiqp9-338" target="IT3nphw8xW6kMLgiiqp9-339">
          <mxGeometry width="50" height="50" relative="1" as="geometry">
            <mxPoint x="65" y="63" as="sourcePoint" />
            <mxPoint x="109" y="52" as="targetPoint" />
          </mxGeometry>
        </mxCell>
        <mxCell id="IT3nphw8xW6kMLgiiqp9-566" value="" style="group" vertex="1" connectable="0" parent="1">
          <mxGeometry x="1220" y="1890" width="130" height="49" as="geometry" />
        </mxCell>
        <mxCell id="IT3nphw8xW6kMLgiiqp9-575" value="" style="edgeStyle=orthogonalEdgeStyle;rounded=0;orthogonalLoop=1;jettySize=auto;html=1;" edge="1" parent="IT3nphw8xW6kMLgiiqp9-566" source="IT3nphw8xW6kMLgiiqp9-194" target="IT3nphw8xW6kMLgiiqp9-198">
          <mxGeometry relative="1" as="geometry" />
        </mxCell>
        <mxCell id="IT3nphw8xW6kMLgiiqp9-194" value="supplier" style="rounded=0;whiteSpace=wrap;html=1;fontSize=8;fontStyle=1;verticalAlign=middle;container=0;" vertex="1" parent="IT3nphw8xW6kMLgiiqp9-566">
          <mxGeometry x="30" y="32.690000000000055" width="50" height="16.31" as="geometry" />
        </mxCell>
        <mxCell id="IT3nphw8xW6kMLgiiqp9-195" value="" style="endArrow=none;html=1;rounded=0;exitX=0.114;exitY=0.004;exitDx=0;exitDy=0;exitPerimeter=0;entryX=0.477;entryY=1.082;entryDx=0;entryDy=0;entryPerimeter=0;fontSize=8;fontStyle=1;verticalAlign=middle;" edge="1" parent="IT3nphw8xW6kMLgiiqp9-566" source="IT3nphw8xW6kMLgiiqp9-194" target="IT3nphw8xW6kMLgiiqp9-196">
          <mxGeometry width="50" height="50" relative="1" as="geometry">
            <mxPoint x="40" y="23.921072412929107" as="sourcePoint" />
            <mxPoint x="30" y="6.381608619393546" as="targetPoint" />
          </mxGeometry>
        </mxCell>
        <mxCell id="IT3nphw8xW6kMLgiiqp9-196" value="&lt;font&gt;&lt;u&gt;supplier_id&lt;/u&gt;&lt;/font&gt;" style="ellipse;whiteSpace=wrap;html=1;fontSize=8;fontStyle=1;verticalAlign=middle;container=0;" vertex="1" parent="IT3nphw8xW6kMLgiiqp9-566">
          <mxGeometry y="6.53946379353556" width="60" height="17.539463793535457" as="geometry" />
        </mxCell>
        <mxCell id="IT3nphw8xW6kMLgiiqp9-197" value="" style="endArrow=none;html=1;rounded=0;exitX=0.5;exitY=0;exitDx=0;exitDy=0;entryX=0.477;entryY=1.082;entryDx=0;entryDy=0;entryPerimeter=0;fontSize=8;fontStyle=1;verticalAlign=middle;" edge="1" parent="IT3nphw8xW6kMLgiiqp9-566" source="IT3nphw8xW6kMLgiiqp9-194" target="IT3nphw8xW6kMLgiiqp9-198">
          <mxGeometry width="50" height="50" relative="1" as="geometry">
            <mxPoint x="90" y="32.69080430969689" as="sourcePoint" />
            <mxPoint x="80" y="6.381608619393546" as="targetPoint" />
          </mxGeometry>
        </mxCell>
        <mxCell id="IT3nphw8xW6kMLgiiqp9-198" value="name" style="ellipse;whiteSpace=wrap;html=1;fontSize=8;fontStyle=1;verticalAlign=middle;container=0;" vertex="1" parent="IT3nphw8xW6kMLgiiqp9-566">
          <mxGeometry x="70" width="60" height="20" as="geometry" />
        </mxCell>
        <mxCell id="IT3nphw8xW6kMLgiiqp9-567" value="" style="group" vertex="1" connectable="0" parent="1">
          <mxGeometry x="1230" y="2090" width="150" height="60" as="geometry" />
        </mxCell>
        <mxCell id="IT3nphw8xW6kMLgiiqp9-202" value="incidentreport" style="rounded=0;whiteSpace=wrap;html=1;fontSize=8;fontStyle=1;verticalAlign=middle;container=0;" vertex="1" parent="IT3nphw8xW6kMLgiiqp9-567">
          <mxGeometry x="20" y="32.690000000000055" width="60" height="27.31" as="geometry" />
        </mxCell>
        <mxCell id="IT3nphw8xW6kMLgiiqp9-203" value="" style="endArrow=none;html=1;rounded=0;exitX=0.114;exitY=0.004;exitDx=0;exitDy=0;exitPerimeter=0;entryX=0.477;entryY=1.082;entryDx=0;entryDy=0;entryPerimeter=0;fontSize=8;fontStyle=1;verticalAlign=middle;" edge="1" parent="IT3nphw8xW6kMLgiiqp9-567" source="IT3nphw8xW6kMLgiiqp9-202" target="IT3nphw8xW6kMLgiiqp9-204">
          <mxGeometry width="50" height="50" relative="1" as="geometry">
            <mxPoint x="40" y="23.921072412929107" as="sourcePoint" />
            <mxPoint x="30" y="6.381608619393546" as="targetPoint" />
          </mxGeometry>
        </mxCell>
        <mxCell id="IT3nphw8xW6kMLgiiqp9-204" value="&lt;font&gt;&lt;u&gt;incident_id&lt;/u&gt;&lt;/font&gt;" style="ellipse;whiteSpace=wrap;html=1;fontSize=8;fontStyle=1;verticalAlign=middle;container=0;" vertex="1" parent="IT3nphw8xW6kMLgiiqp9-567">
          <mxGeometry y="6.53946379353556" width="60" height="17.539463793535457" as="geometry" />
        </mxCell>
        <mxCell id="IT3nphw8xW6kMLgiiqp9-205" value="" style="endArrow=none;html=1;rounded=0;exitX=0.5;exitY=0;exitDx=0;exitDy=0;entryX=0.477;entryY=1.082;entryDx=0;entryDy=0;entryPerimeter=0;fontSize=8;fontStyle=1;verticalAlign=middle;" edge="1" parent="IT3nphw8xW6kMLgiiqp9-567" source="IT3nphw8xW6kMLgiiqp9-202" target="IT3nphw8xW6kMLgiiqp9-206">
          <mxGeometry width="50" height="50" relative="1" as="geometry">
            <mxPoint x="90" y="32.69080430969689" as="sourcePoint" />
            <mxPoint x="80" y="6.381608619393546" as="targetPoint" />
          </mxGeometry>
        </mxCell>
        <mxCell id="IT3nphw8xW6kMLgiiqp9-206" value="description" style="ellipse;whiteSpace=wrap;html=1;fontSize=8;fontStyle=1;verticalAlign=middle;container=0;" vertex="1" parent="IT3nphw8xW6kMLgiiqp9-567">
          <mxGeometry x="70" width="60" height="20" as="geometry" />
        </mxCell>
        <mxCell id="IT3nphw8xW6kMLgiiqp9-207" value="Resolution" style="ellipse;whiteSpace=wrap;html=1;fontSize=8;fontStyle=1;verticalAlign=middle;container=0;" vertex="1" parent="IT3nphw8xW6kMLgiiqp9-567">
          <mxGeometry x="90" y="29" width="60" height="20" as="geometry" />
        </mxCell>
        <mxCell id="IT3nphw8xW6kMLgiiqp9-208" value="" style="endArrow=none;html=1;rounded=0;exitX=1;exitY=0.5;exitDx=0;exitDy=0;entryX=0;entryY=0.5;entryDx=0;entryDy=0;fontSize=8;fontStyle=1;verticalAlign=middle;" edge="1" parent="IT3nphw8xW6kMLgiiqp9-567" source="IT3nphw8xW6kMLgiiqp9-202" target="IT3nphw8xW6kMLgiiqp9-207">
          <mxGeometry width="50" height="50" relative="1" as="geometry">
            <mxPoint x="65" y="43" as="sourcePoint" />
            <mxPoint x="109" y="32" as="targetPoint" />
          </mxGeometry>
        </mxCell>
        <mxCell id="IT3nphw8xW6kMLgiiqp9-568" value="" style="group" vertex="1" connectable="0" parent="1">
          <mxGeometry x="160" y="1450" width="150" height="49" as="geometry" />
        </mxCell>
        <mxCell id="IT3nphw8xW6kMLgiiqp9-161" value="maintanace" style="rounded=0;whiteSpace=wrap;html=1;fontSize=8;fontStyle=1;verticalAlign=middle;container=0;" vertex="1" parent="IT3nphw8xW6kMLgiiqp9-568">
          <mxGeometry x="30" y="32.690000000000055" width="50" height="16.31" as="geometry" />
        </mxCell>
        <mxCell id="IT3nphw8xW6kMLgiiqp9-162" value="" style="endArrow=none;html=1;rounded=0;exitX=0.114;exitY=0.004;exitDx=0;exitDy=0;exitPerimeter=0;entryX=0.477;entryY=1.082;entryDx=0;entryDy=0;entryPerimeter=0;fontSize=8;fontStyle=1;verticalAlign=middle;" edge="1" parent="IT3nphw8xW6kMLgiiqp9-568" source="IT3nphw8xW6kMLgiiqp9-161" target="IT3nphw8xW6kMLgiiqp9-163">
          <mxGeometry width="50" height="50" relative="1" as="geometry">
            <mxPoint x="40" y="23.921072412929107" as="sourcePoint" />
            <mxPoint x="30" y="6.381608619393546" as="targetPoint" />
          </mxGeometry>
        </mxCell>
        <mxCell id="IT3nphw8xW6kMLgiiqp9-163" value="&lt;font&gt;&lt;u&gt;maintanance_id&lt;/u&gt;&lt;/font&gt;" style="ellipse;whiteSpace=wrap;html=1;fontSize=8;fontStyle=1;verticalAlign=middle;container=0;" vertex="1" parent="IT3nphw8xW6kMLgiiqp9-568">
          <mxGeometry y="6.53946379353556" width="60" height="17.539463793535457" as="geometry" />
        </mxCell>
        <mxCell id="IT3nphw8xW6kMLgiiqp9-164" value="" style="endArrow=none;html=1;rounded=0;exitX=0.5;exitY=0;exitDx=0;exitDy=0;entryX=0.477;entryY=1.082;entryDx=0;entryDy=0;entryPerimeter=0;fontSize=8;fontStyle=1;verticalAlign=middle;" edge="1" parent="IT3nphw8xW6kMLgiiqp9-568" source="IT3nphw8xW6kMLgiiqp9-161" target="IT3nphw8xW6kMLgiiqp9-165">
          <mxGeometry width="50" height="50" relative="1" as="geometry">
            <mxPoint x="90" y="32.69080430969689" as="sourcePoint" />
            <mxPoint x="80" y="6.381608619393546" as="targetPoint" />
          </mxGeometry>
        </mxCell>
        <mxCell id="IT3nphw8xW6kMLgiiqp9-165" value="repair_cost" style="ellipse;whiteSpace=wrap;html=1;fontSize=8;fontStyle=1;verticalAlign=middle;container=0;" vertex="1" parent="IT3nphw8xW6kMLgiiqp9-568">
          <mxGeometry x="70" width="60" height="20" as="geometry" />
        </mxCell>
        <mxCell id="IT3nphw8xW6kMLgiiqp9-166" value="repair_date" style="ellipse;whiteSpace=wrap;html=1;fontSize=8;fontStyle=1;verticalAlign=middle;container=0;" vertex="1" parent="IT3nphw8xW6kMLgiiqp9-568">
          <mxGeometry x="90" y="29" width="60" height="20" as="geometry" />
        </mxCell>
        <mxCell id="IT3nphw8xW6kMLgiiqp9-167" value="" style="endArrow=none;html=1;rounded=0;exitX=1;exitY=0.5;exitDx=0;exitDy=0;entryX=0;entryY=0.5;entryDx=0;entryDy=0;fontSize=8;fontStyle=1;verticalAlign=middle;" edge="1" parent="IT3nphw8xW6kMLgiiqp9-568" source="IT3nphw8xW6kMLgiiqp9-161" target="IT3nphw8xW6kMLgiiqp9-166">
          <mxGeometry width="50" height="50" relative="1" as="geometry">
            <mxPoint x="65" y="43" as="sourcePoint" />
            <mxPoint x="109" y="32" as="targetPoint" />
          </mxGeometry>
        </mxCell>
        <mxCell id="IT3nphw8xW6kMLgiiqp9-569" value="" style="group" vertex="1" connectable="0" parent="1">
          <mxGeometry x="160" y="944.08" width="170" height="69.99999999999989" as="geometry" />
        </mxCell>
        <mxCell id="IT3nphw8xW6kMLgiiqp9-212" value="healthwaiver" style="rounded=0;whiteSpace=wrap;html=1;fontSize=8;fontStyle=1;verticalAlign=middle;container=0;" vertex="1" parent="IT3nphw8xW6kMLgiiqp9-569">
          <mxGeometry x="20" y="42.68999999999994" width="60" height="27.31" as="geometry" />
        </mxCell>
        <mxCell id="IT3nphw8xW6kMLgiiqp9-213" value="" style="endArrow=none;html=1;rounded=0;exitX=0.114;exitY=0.004;exitDx=0;exitDy=0;exitPerimeter=0;entryX=0.477;entryY=1.082;entryDx=0;entryDy=0;entryPerimeter=0;fontSize=8;fontStyle=1;verticalAlign=middle;" edge="1" parent="IT3nphw8xW6kMLgiiqp9-569" source="IT3nphw8xW6kMLgiiqp9-212" target="IT3nphw8xW6kMLgiiqp9-214">
          <mxGeometry width="50" height="50" relative="1" as="geometry">
            <mxPoint x="40" y="33.92107241292911" as="sourcePoint" />
            <mxPoint x="30" y="16.38160861939366" as="targetPoint" />
          </mxGeometry>
        </mxCell>
        <mxCell id="IT3nphw8xW6kMLgiiqp9-214" value="&lt;font&gt;&lt;u&gt;waiver_id&lt;/u&gt;&lt;/font&gt;" style="ellipse;whiteSpace=wrap;html=1;fontSize=8;fontStyle=1;verticalAlign=middle;container=0;" vertex="1" parent="IT3nphw8xW6kMLgiiqp9-569">
          <mxGeometry y="16.539463793535447" width="60" height="17.539463793535457" as="geometry" />
        </mxCell>
        <mxCell id="IT3nphw8xW6kMLgiiqp9-215" value="" style="endArrow=none;html=1;rounded=0;exitX=0.5;exitY=0;exitDx=0;exitDy=0;entryX=0.477;entryY=1.082;entryDx=0;entryDy=0;entryPerimeter=0;fontSize=8;fontStyle=1;verticalAlign=middle;" edge="1" parent="IT3nphw8xW6kMLgiiqp9-569" source="IT3nphw8xW6kMLgiiqp9-212" target="IT3nphw8xW6kMLgiiqp9-216">
          <mxGeometry width="50" height="50" relative="1" as="geometry">
            <mxPoint x="90" y="42.69080430969677" as="sourcePoint" />
            <mxPoint x="80" y="16.38160861939366" as="targetPoint" />
          </mxGeometry>
        </mxCell>
        <mxCell id="IT3nphw8xW6kMLgiiqp9-216" value="emergency_contact" style="ellipse;whiteSpace=wrap;html=1;fontSize=8;fontStyle=1;verticalAlign=middle;container=0;" vertex="1" parent="IT3nphw8xW6kMLgiiqp9-569">
          <mxGeometry x="70" width="80" height="30" as="geometry" />
        </mxCell>
        <mxCell id="IT3nphw8xW6kMLgiiqp9-217" value="medical_condition" style="ellipse;whiteSpace=wrap;html=1;fontSize=8;fontStyle=1;verticalAlign=middle;container=0;" vertex="1" parent="IT3nphw8xW6kMLgiiqp9-569">
          <mxGeometry x="90" y="39" width="80" height="21" as="geometry" />
        </mxCell>
        <mxCell id="IT3nphw8xW6kMLgiiqp9-218" value="" style="endArrow=none;html=1;rounded=0;exitX=1;exitY=0.5;exitDx=0;exitDy=0;entryX=0;entryY=0.5;entryDx=0;entryDy=0;fontSize=8;fontStyle=1;verticalAlign=middle;" edge="1" parent="IT3nphw8xW6kMLgiiqp9-569" source="IT3nphw8xW6kMLgiiqp9-212" target="IT3nphw8xW6kMLgiiqp9-217">
          <mxGeometry width="50" height="50" relative="1" as="geometry">
            <mxPoint x="65" y="53" as="sourcePoint" />
            <mxPoint x="109" y="42" as="targetPoint" />
          </mxGeometry>
        </mxCell>
        <mxCell id="IT3nphw8xW6kMLgiiqp9-570" value="" style="group" vertex="1" connectable="0" parent="1">
          <mxGeometry x="165" y="1800" width="160" height="77.53999999999996" as="geometry" />
        </mxCell>
        <mxCell id="IT3nphw8xW6kMLgiiqp9-150" value="Benefits" style="ellipse;whiteSpace=wrap;html=1;fontSize=8;fontStyle=1;verticalAlign=middle;container=0;" vertex="1" parent="IT3nphw8xW6kMLgiiqp9-570">
          <mxGeometry x="100" y="57.539999999999964" width="60" height="20" as="geometry" />
        </mxCell>
        <mxCell id="IT3nphw8xW6kMLgiiqp9-151" value="basic" style="ellipse;whiteSpace=wrap;html=1;fontSize=8;fontStyle=1;verticalAlign=middle;container=0;" vertex="1" parent="IT3nphw8xW6kMLgiiqp9-570">
          <mxGeometry x="70" width="40" height="17.539463793535457" as="geometry" />
        </mxCell>
        <mxCell id="IT3nphw8xW6kMLgiiqp9-152" value="premium" style="ellipse;whiteSpace=wrap;html=1;fontSize=8;fontStyle=1;verticalAlign=middle;container=0;" vertex="1" parent="IT3nphw8xW6kMLgiiqp9-570">
          <mxGeometry x="120" width="40" height="17.539463793535457" as="geometry" />
        </mxCell>
        <mxCell id="IT3nphw8xW6kMLgiiqp9-153" value="" style="endArrow=none;html=1;rounded=0;entryX=0.592;entryY=0.9;entryDx=0;entryDy=0;fontSize=8;fontStyle=1;entryPerimeter=0;verticalAlign=middle;" edge="1" parent="IT3nphw8xW6kMLgiiqp9-570" target="IT3nphw8xW6kMLgiiqp9-151">
          <mxGeometry width="50" height="50" relative="1" as="geometry">
            <mxPoint x="100" y="27.539999999999964" as="sourcePoint" />
            <mxPoint x="80" y="-31.460000000000036" as="targetPoint" />
          </mxGeometry>
        </mxCell>
        <mxCell id="IT3nphw8xW6kMLgiiqp9-154" value="" style="endArrow=none;html=1;rounded=0;exitX=0.5;exitY=0;exitDx=0;exitDy=0;entryX=0;entryY=1;entryDx=0;entryDy=0;fontSize=8;fontStyle=1;verticalAlign=middle;" edge="1" parent="IT3nphw8xW6kMLgiiqp9-570" source="IT3nphw8xW6kMLgiiqp9-148" target="IT3nphw8xW6kMLgiiqp9-152">
          <mxGeometry width="50" height="50" relative="1" as="geometry">
            <mxPoint x="98" y="40.539999999999964" as="sourcePoint" />
            <mxPoint x="104" y="25.539999999999964" as="targetPoint" />
          </mxGeometry>
        </mxCell>
        <mxCell id="IT3nphw8xW6kMLgiiqp9-144" value="membership" style="rounded=0;whiteSpace=wrap;html=1;fontSize=8;fontStyle=1;verticalAlign=middle;container=0;" vertex="1" parent="IT3nphw8xW6kMLgiiqp9-570">
          <mxGeometry x="30" y="61.23000000000002" width="50" height="16.31" as="geometry" />
        </mxCell>
        <mxCell id="IT3nphw8xW6kMLgiiqp9-145" value="" style="endArrow=none;html=1;rounded=0;exitX=0.114;exitY=0.004;exitDx=0;exitDy=0;exitPerimeter=0;entryX=0.477;entryY=1.082;entryDx=0;entryDy=0;entryPerimeter=0;fontSize=8;fontStyle=1;verticalAlign=middle;" edge="1" parent="IT3nphw8xW6kMLgiiqp9-570" source="IT3nphw8xW6kMLgiiqp9-144" target="IT3nphw8xW6kMLgiiqp9-146">
          <mxGeometry width="50" height="50" relative="1" as="geometry">
            <mxPoint x="40" y="52.46107241292907" as="sourcePoint" />
            <mxPoint x="30" y="34.92160861939351" as="targetPoint" />
          </mxGeometry>
        </mxCell>
        <mxCell id="IT3nphw8xW6kMLgiiqp9-146" value="&lt;font&gt;&lt;u&gt;membership_id&lt;/u&gt;&lt;/font&gt;" style="ellipse;whiteSpace=wrap;html=1;fontSize=8;fontStyle=1;verticalAlign=middle;container=0;" vertex="1" parent="IT3nphw8xW6kMLgiiqp9-570">
          <mxGeometry y="35.079463793535524" width="60" height="17.539463793535457" as="geometry" />
        </mxCell>
        <mxCell id="IT3nphw8xW6kMLgiiqp9-147" value="" style="endArrow=none;html=1;rounded=0;exitX=0.5;exitY=0;exitDx=0;exitDy=0;entryX=0.477;entryY=1.082;entryDx=0;entryDy=0;entryPerimeter=0;fontSize=8;fontStyle=1;verticalAlign=middle;" edge="1" parent="IT3nphw8xW6kMLgiiqp9-570" source="IT3nphw8xW6kMLgiiqp9-144" target="IT3nphw8xW6kMLgiiqp9-148">
          <mxGeometry width="50" height="50" relative="1" as="geometry">
            <mxPoint x="90" y="61.23080430969685" as="sourcePoint" />
            <mxPoint x="80" y="34.92160861939351" as="targetPoint" />
          </mxGeometry>
        </mxCell>
        <mxCell id="IT3nphw8xW6kMLgiiqp9-148" value="plan_type" style="ellipse;whiteSpace=wrap;html=1;fontSize=8;fontStyle=1;verticalAlign=middle;container=0;" vertex="1" parent="IT3nphw8xW6kMLgiiqp9-570">
          <mxGeometry x="70" y="28.539999999999964" width="60" height="20" as="geometry" />
        </mxCell>
        <mxCell id="IT3nphw8xW6kMLgiiqp9-149" value="" style="endArrow=none;html=1;rounded=0;exitX=1;exitY=0.5;exitDx=0;exitDy=0;fontSize=8;fontStyle=1;verticalAlign=middle;" edge="1" parent="IT3nphw8xW6kMLgiiqp9-570">
          <mxGeometry width="50" height="50" relative="1" as="geometry">
            <mxPoint x="80" y="63.23000000000002" as="sourcePoint" />
            <mxPoint x="100" y="67.53999999999996" as="targetPoint" />
            <Array as="points">
              <mxPoint x="80" y="70.23000000000002" />
            </Array>
          </mxGeometry>
        </mxCell>
        <mxCell id="IT3nphw8xW6kMLgiiqp9-571" value="" style="group" vertex="1" connectable="0" parent="1">
          <mxGeometry x="170" y="1175.5" width="150" height="70" as="geometry" />
        </mxCell>
        <mxCell id="IT3nphw8xW6kMLgiiqp9-82" value="login_credntial" style="rounded=0;whiteSpace=wrap;html=1;fontSize=8;fontStyle=1;verticalAlign=middle;container=0;" vertex="1" parent="IT3nphw8xW6kMLgiiqp9-571">
          <mxGeometry x="30" y="43.69080430969689" width="80" height="26.309195690303184" as="geometry" />
        </mxCell>
        <mxCell id="IT3nphw8xW6kMLgiiqp9-83" value="" style="endArrow=none;html=1;rounded=0;exitX=0.114;exitY=0.004;exitDx=0;exitDy=0;exitPerimeter=0;entryX=0.477;entryY=1.082;entryDx=0;entryDy=0;entryPerimeter=0;fontSize=8;fontStyle=1;verticalAlign=middle;" edge="1" parent="IT3nphw8xW6kMLgiiqp9-571" source="IT3nphw8xW6kMLgiiqp9-82" target="IT3nphw8xW6kMLgiiqp9-84">
          <mxGeometry width="50" height="50" relative="1" as="geometry">
            <mxPoint x="40" y="34.92107241292911" as="sourcePoint" />
            <mxPoint x="30" y="17.381608619393546" as="targetPoint" />
          </mxGeometry>
        </mxCell>
        <mxCell id="IT3nphw8xW6kMLgiiqp9-84" value="&lt;font&gt;&lt;u&gt;credid&lt;/u&gt;&lt;/font&gt;" style="ellipse;whiteSpace=wrap;html=1;fontSize=8;fontStyle=1;verticalAlign=middle;container=0;" vertex="1" parent="IT3nphw8xW6kMLgiiqp9-571">
          <mxGeometry y="17.53946379353556" width="60" height="17.539463793535457" as="geometry" />
        </mxCell>
        <mxCell id="IT3nphw8xW6kMLgiiqp9-85" value="" style="endArrow=none;html=1;rounded=0;exitX=0.5;exitY=0;exitDx=0;exitDy=0;entryX=0.477;entryY=1.082;entryDx=0;entryDy=0;entryPerimeter=0;fontSize=8;fontStyle=1;verticalAlign=middle;" edge="1" parent="IT3nphw8xW6kMLgiiqp9-571" source="IT3nphw8xW6kMLgiiqp9-82" target="IT3nphw8xW6kMLgiiqp9-86">
          <mxGeometry width="50" height="50" relative="1" as="geometry">
            <mxPoint x="90" y="43.69080430969689" as="sourcePoint" />
            <mxPoint x="80" y="17.381608619393546" as="targetPoint" />
          </mxGeometry>
        </mxCell>
        <mxCell id="IT3nphw8xW6kMLgiiqp9-86" value="username" style="ellipse;whiteSpace=wrap;html=1;fontSize=8;fontStyle=1;verticalAlign=middle;container=0;" vertex="1" parent="IT3nphw8xW6kMLgiiqp9-571">
          <mxGeometry x="50" width="40" height="17.539463793535457" as="geometry" />
        </mxCell>
        <mxCell id="IT3nphw8xW6kMLgiiqp9-87" value="" style="endArrow=none;html=1;rounded=0;entryX=0.323;entryY=0.914;entryDx=0;entryDy=0;entryPerimeter=0;fontSize=8;fontStyle=1;exitX=0.893;exitY=-0.073;exitDx=0;exitDy=0;exitPerimeter=0;verticalAlign=middle;" edge="1" parent="IT3nphw8xW6kMLgiiqp9-571" source="IT3nphw8xW6kMLgiiqp9-82" target="IT3nphw8xW6kMLgiiqp9-88">
          <mxGeometry width="50" height="50" relative="1" as="geometry">
            <mxPoint x="140" y="43.69080430969689" as="sourcePoint" />
            <mxPoint x="150" y="26.151340516161326" as="targetPoint" />
          </mxGeometry>
        </mxCell>
        <mxCell id="IT3nphw8xW6kMLgiiqp9-88" value="encrypt_pass" style="ellipse;whiteSpace=wrap;html=1;fontSize=8;fontStyle=1;verticalAlign=middle;container=0;" vertex="1" parent="IT3nphw8xW6kMLgiiqp9-571">
          <mxGeometry x="90" y="17.53946379353556" width="60" height="17.539463793535457" as="geometry" />
        </mxCell>
        <mxCell id="IT3nphw8xW6kMLgiiqp9-572" value="" style="group" vertex="1" connectable="0" parent="1">
          <mxGeometry x="1210" y="1630" width="120" height="61" as="geometry" />
        </mxCell>
        <mxCell id="IT3nphw8xW6kMLgiiqp9-135" value="equipment" style="rounded=0;whiteSpace=wrap;html=1;fontSize=8;fontStyle=1;verticalAlign=middle;container=0;" vertex="1" parent="IT3nphw8xW6kMLgiiqp9-572">
          <mxGeometry x="32.72727272727275" y="40.6957142857143" width="54.54545454545454" height="20.30428571428571" as="geometry" />
        </mxCell>
        <mxCell id="IT3nphw8xW6kMLgiiqp9-136" value="" style="endArrow=none;html=1;rounded=0;exitX=0.114;exitY=0.004;exitDx=0;exitDy=0;exitPerimeter=0;entryX=0.477;entryY=1.082;entryDx=0;entryDy=0;entryPerimeter=0;fontSize=8;fontStyle=1;verticalAlign=middle;" edge="1" parent="IT3nphw8xW6kMLgiiqp9-572" source="IT3nphw8xW6kMLgiiqp9-135" target="IT3nphw8xW6kMLgiiqp9-137">
          <mxGeometry width="50" height="50" relative="1" as="geometry">
            <mxPoint x="43.636363636363626" y="29.779294228340177" as="sourcePoint" />
            <mxPoint x="32.72727272727275" y="7.944451546592063" as="targetPoint" />
          </mxGeometry>
        </mxCell>
        <mxCell id="IT3nphw8xW6kMLgiiqp9-137" value="&lt;font&gt;&lt;u&gt;equipment_id&lt;/u&gt;&lt;/font&gt;" style="ellipse;whiteSpace=wrap;html=1;fontSize=8;fontStyle=1;verticalAlign=middle;container=0;" vertex="1" parent="IT3nphw8xW6kMLgiiqp9-572">
          <mxGeometry y="8.140965130727864" width="65.45454545454545" height="21.83484268174822" as="geometry" />
        </mxCell>
        <mxCell id="IT3nphw8xW6kMLgiiqp9-138" value="" style="endArrow=none;html=1;rounded=0;exitX=0.5;exitY=0;exitDx=0;exitDy=0;entryX=0.477;entryY=1.082;entryDx=0;entryDy=0;entryPerimeter=0;fontSize=8;fontStyle=1;verticalAlign=middle;" edge="1" parent="IT3nphw8xW6kMLgiiqp9-572" source="IT3nphw8xW6kMLgiiqp9-135" target="IT3nphw8xW6kMLgiiqp9-139">
          <mxGeometry width="50" height="50" relative="1" as="geometry">
            <mxPoint x="98.18181818181813" y="40.69671556921435" as="sourcePoint" />
            <mxPoint x="87.27272727272725" y="7.944451546592063" as="targetPoint" />
          </mxGeometry>
        </mxCell>
        <mxCell id="IT3nphw8xW6kMLgiiqp9-139" value="name" style="ellipse;whiteSpace=wrap;html=1;fontSize=8;fontStyle=1;verticalAlign=middle;container=0;" vertex="1" parent="IT3nphw8xW6kMLgiiqp9-572">
          <mxGeometry x="76.36363636363637" width="43.63636363636363" height="21.83484268174822" as="geometry" />
        </mxCell>
        <mxCell id="IT3nphw8xW6kMLgiiqp9-573" value="" style="group" vertex="1" connectable="0" parent="1">
          <mxGeometry x="1160" y="1330" width="150" height="49" as="geometry" />
        </mxCell>
        <mxCell id="IT3nphw8xW6kMLgiiqp9-185" value="profile" style="rounded=0;whiteSpace=wrap;html=1;fontSize=8;fontStyle=1;verticalAlign=middle;container=0;" vertex="1" parent="IT3nphw8xW6kMLgiiqp9-573">
          <mxGeometry x="30" y="32.690000000000055" width="50" height="16.31" as="geometry" />
        </mxCell>
        <mxCell id="IT3nphw8xW6kMLgiiqp9-186" value="" style="endArrow=none;html=1;rounded=0;exitX=0.114;exitY=0.004;exitDx=0;exitDy=0;exitPerimeter=0;entryX=0.477;entryY=1.082;entryDx=0;entryDy=0;entryPerimeter=0;fontSize=8;fontStyle=1;verticalAlign=middle;" edge="1" parent="IT3nphw8xW6kMLgiiqp9-573" source="IT3nphw8xW6kMLgiiqp9-185" target="IT3nphw8xW6kMLgiiqp9-187">
          <mxGeometry width="50" height="50" relative="1" as="geometry">
            <mxPoint x="40" y="23.921072412929107" as="sourcePoint" />
            <mxPoint x="30" y="6.381608619393546" as="targetPoint" />
          </mxGeometry>
        </mxCell>
        <mxCell id="IT3nphw8xW6kMLgiiqp9-187" value="&lt;font&gt;&lt;u&gt;profile_id&lt;/u&gt;&lt;/font&gt;" style="ellipse;whiteSpace=wrap;html=1;fontSize=8;fontStyle=1;verticalAlign=middle;container=0;" vertex="1" parent="IT3nphw8xW6kMLgiiqp9-573">
          <mxGeometry y="6.53946379353556" width="60" height="17.539463793535457" as="geometry" />
        </mxCell>
        <mxCell id="IT3nphw8xW6kMLgiiqp9-188" value="" style="endArrow=none;html=1;rounded=0;exitX=0.5;exitY=0;exitDx=0;exitDy=0;entryX=0.477;entryY=1.082;entryDx=0;entryDy=0;entryPerimeter=0;fontSize=8;fontStyle=1;verticalAlign=middle;" edge="1" parent="IT3nphw8xW6kMLgiiqp9-573" source="IT3nphw8xW6kMLgiiqp9-185" target="IT3nphw8xW6kMLgiiqp9-189">
          <mxGeometry width="50" height="50" relative="1" as="geometry">
            <mxPoint x="90" y="32.69080430969689" as="sourcePoint" />
            <mxPoint x="80" y="6.381608619393546" as="targetPoint" />
          </mxGeometry>
        </mxCell>
        <mxCell id="IT3nphw8xW6kMLgiiqp9-189" value="loyality_points" style="ellipse;whiteSpace=wrap;html=1;fontSize=8;fontStyle=1;verticalAlign=middle;container=0;" vertex="1" parent="IT3nphw8xW6kMLgiiqp9-573">
          <mxGeometry x="70" width="60" height="20" as="geometry" />
        </mxCell>
        <mxCell id="IT3nphw8xW6kMLgiiqp9-190" value="avichment" style="ellipse;whiteSpace=wrap;html=1;fontSize=8;fontStyle=1;verticalAlign=middle;container=0;" vertex="1" parent="IT3nphw8xW6kMLgiiqp9-573">
          <mxGeometry x="90" y="29" width="60" height="20" as="geometry" />
        </mxCell>
        <mxCell id="IT3nphw8xW6kMLgiiqp9-191" value="" style="endArrow=none;html=1;rounded=0;exitX=1;exitY=0.5;exitDx=0;exitDy=0;entryX=0;entryY=0.5;entryDx=0;entryDy=0;fontSize=8;fontStyle=1;verticalAlign=middle;" edge="1" parent="IT3nphw8xW6kMLgiiqp9-573" source="IT3nphw8xW6kMLgiiqp9-185" target="IT3nphw8xW6kMLgiiqp9-190">
          <mxGeometry width="50" height="50" relative="1" as="geometry">
            <mxPoint x="65" y="43" as="sourcePoint" />
            <mxPoint x="109" y="32" as="targetPoint" />
          </mxGeometry>
        </mxCell>
        <mxCell id="IT3nphw8xW6kMLgiiqp9-576" value="" style="group" vertex="1" connectable="0" parent="1">
          <mxGeometry x="150" y="2030" width="250" height="104" as="geometry" />
        </mxCell>
        <mxCell id="IT3nphw8xW6kMLgiiqp9-540" value="promotion" style="ellipse;whiteSpace=wrap;html=1;fontSize=8;fontStyle=1;verticalAlign=middle;container=0;" vertex="1" parent="IT3nphw8xW6kMLgiiqp9-576">
          <mxGeometry x="74" width="86.66666666666667" height="19.293999999999997" as="geometry" />
        </mxCell>
        <mxCell id="IT3nphw8xW6kMLgiiqp9-541" value="reminder" style="ellipse;whiteSpace=wrap;html=1;fontSize=8;fontStyle=1;verticalAlign=middle;container=0;" vertex="1" parent="IT3nphw8xW6kMLgiiqp9-576">
          <mxGeometry x="160.66666666666674" y="13.706000000000017" width="69.33333333333334" height="19.293410172889" as="geometry" />
        </mxCell>
        <mxCell id="IT3nphw8xW6kMLgiiqp9-542" value="" style="endArrow=none;html=1;rounded=0;exitX=1;exitY=0;exitDx=0;exitDy=0;fontSize=8;fontStyle=1;verticalAlign=middle;" edge="1" parent="IT3nphw8xW6kMLgiiqp9-576" source="IT3nphw8xW6kMLgiiqp9-537">
          <mxGeometry width="50" height="50" relative="1" as="geometry">
            <mxPoint x="82.66666666666674" y="92.39999999999998" as="sourcePoint" />
            <mxPoint x="195.33333333333348" y="33" as="targetPoint" />
          </mxGeometry>
        </mxCell>
        <mxCell id="IT3nphw8xW6kMLgiiqp9-543" value="" style="endArrow=none;html=1;rounded=0;fontSize=8;fontStyle=1;entryX=0.5;entryY=1;entryDx=0;entryDy=0;verticalAlign=middle;" edge="1" parent="IT3nphw8xW6kMLgiiqp9-576" target="IT3nphw8xW6kMLgiiqp9-540">
          <mxGeometry width="50" height="50" relative="1" as="geometry">
            <mxPoint x="143.33333333333348" y="44" as="sourcePoint" />
            <mxPoint x="212.66666666666674" y="44" as="targetPoint" />
          </mxGeometry>
        </mxCell>
        <mxCell id="IT3nphw8xW6kMLgiiqp9-533" value="notification" style="rounded=0;whiteSpace=wrap;html=1;fontSize=8;fontStyle=1;verticalAlign=middle;container=0;" vertex="1" parent="IT3nphw8xW6kMLgiiqp9-576">
          <mxGeometry x="42" y="86.05899999999997" width="86.66666666666667" height="17.941" as="geometry" />
        </mxCell>
        <mxCell id="IT3nphw8xW6kMLgiiqp9-534" value="" style="endArrow=none;html=1;rounded=0;exitX=0.5;exitY=0;exitDx=0;exitDy=0;entryX=0.477;entryY=1.082;entryDx=0;entryDy=0;entryPerimeter=0;fontSize=8;fontStyle=1;verticalAlign=middle;" edge="1" parent="IT3nphw8xW6kMLgiiqp9-576" source="IT3nphw8xW6kMLgiiqp9-533" target="IT3nphw8xW6kMLgiiqp9-535">
          <mxGeometry width="50" height="50" relative="1" as="geometry">
            <mxPoint x="59.33333333333326" y="76.41317965422206" as="sourcePoint" />
            <mxPoint x="42" y="57.11976948133304" as="targetPoint" />
          </mxGeometry>
        </mxCell>
        <mxCell id="IT3nphw8xW6kMLgiiqp9-535" value="&lt;font&gt;&lt;u&gt;notification_id&lt;/u&gt;&lt;/font&gt;" style="ellipse;whiteSpace=wrap;html=1;fontSize=8;fontStyle=1;verticalAlign=middle;container=0;" vertex="1" parent="IT3nphw8xW6kMLgiiqp9-576">
          <mxGeometry y="57.29000000000008" width="70" height="19.29" as="geometry" />
        </mxCell>
        <mxCell id="IT3nphw8xW6kMLgiiqp9-536" value="" style="endArrow=none;html=1;rounded=0;exitX=0.5;exitY=0;exitDx=0;exitDy=0;entryX=0.477;entryY=1.082;entryDx=0;entryDy=0;entryPerimeter=0;fontSize=8;fontStyle=1;verticalAlign=middle;" edge="1" parent="IT3nphw8xW6kMLgiiqp9-576" source="IT3nphw8xW6kMLgiiqp9-533" target="IT3nphw8xW6kMLgiiqp9-537">
          <mxGeometry width="50" height="50" relative="1" as="geometry">
            <mxPoint x="146" y="86.05988474066658" as="sourcePoint" />
            <mxPoint x="128.66666666666674" y="57.11976948133304" as="targetPoint" />
          </mxGeometry>
        </mxCell>
        <mxCell id="IT3nphw8xW6kMLgiiqp9-537" value="type" style="ellipse;whiteSpace=wrap;html=1;fontSize=8;fontStyle=1;verticalAlign=middle;container=0;" vertex="1" parent="IT3nphw8xW6kMLgiiqp9-576">
          <mxGeometry x="111.33333333333326" y="50.10000000000002" width="104" height="22" as="geometry" />
        </mxCell>
        <mxCell id="IT3nphw8xW6kMLgiiqp9-538" value="content" style="ellipse;whiteSpace=wrap;html=1;fontSize=8;fontStyle=1;verticalAlign=middle;container=0;" vertex="1" parent="IT3nphw8xW6kMLgiiqp9-576">
          <mxGeometry x="146" y="82" width="104" height="22" as="geometry" />
        </mxCell>
        <mxCell id="IT3nphw8xW6kMLgiiqp9-539" value="" style="endArrow=none;html=1;rounded=0;exitX=1;exitY=0.5;exitDx=0;exitDy=0;entryX=0;entryY=0.5;entryDx=0;entryDy=0;fontSize=8;fontStyle=1;verticalAlign=middle;" edge="1" parent="IT3nphw8xW6kMLgiiqp9-576" source="IT3nphw8xW6kMLgiiqp9-533" target="IT3nphw8xW6kMLgiiqp9-538">
          <mxGeometry width="50" height="50" relative="1" as="geometry">
            <mxPoint x="102.66666666666674" y="97.39999999999998" as="sourcePoint" />
            <mxPoint x="178.9333333333334" y="85.30000000000007" as="targetPoint" />
          </mxGeometry>
        </mxCell>
      </root>
    </mxGraphModel>
  </diagram>
</mxfile>
